<?xml version="1.0" encoding="UTF-8"?>
<!-- Generator: visioncortex VTracer 0.6.3 -->
<svg version="1.1" xmlns="http://www.w3.org/2000/svg" width="1137" height="1280">
<path d="M0 0 C2.59 1.85 5.01 3.87 7.44 5.94 C16.43 13.59 23.01 16.6 35 17 C35.09 21.33 35.14 25.67 35.19 30 C35.23 31.83 35.23 31.83 35.26 33.7 C35.33 41.31 35.33 47.83 30.39 54.02 C29.83 54.47 29.27 54.92 28.69 55.38 C28.13 55.84 27.58 56.3 27.01 56.77 C20.52 60.73 13.72 60.31 6.36 60.34 C5.12 60.36 3.89 60.37 2.61 60.39 C-1.34 60.43 -5.3 60.47 -9.25 60.5 C-33.2 60.69 -33.2 60.69 -57 63 C-58.96 63.25 -60.93 63.5 -62.89 63.75 C-79.45 66.02 -95.06 70.04 -111 75 C-112.07 75.33 -113.14 75.66 -114.25 76 C-129.27 80.79 -143.83 87.11 -158 94 C-158.93 94.44 -159.86 94.89 -160.82 95.35 C-178.1 103.78 -194.73 113.48 -211.22 123.34 C-215.95 126.16 -220.69 128.95 -225.44 131.75 C-232.12 135.7 -238.79 139.67 -245.44 143.68 C-249.68 146.23 -253.96 148.72 -258.25 151.18 C-276.61 161.36 -276.61 161.36 -292.66 174.73 C-294 176 -294 176 -296 176 C-296.26 176.59 -296.52 177.19 -296.78 177.8 C-298.11 180.19 -299.4 181.45 -301.5 183.19 C-302.58 184.1 -302.58 184.1 -303.68 185.04 C-304.45 185.69 -305.21 186.33 -306 187 C-310.71 191.15 -315.35 195.37 -319.9 199.69 C-320.58 200.33 -321.26 200.97 -321.95 201.62 C-323.31 202.91 -324.65 204.19 -326 205.48 C-326.62 206.06 -327.24 206.65 -327.88 207.25 C-328.71 208.05 -328.71 208.05 -329.55 208.86 C-331 210 -331 210 -333 210 C-333.38 210.88 -333.38 210.88 -333.76 211.79 C-335.15 214.28 -336.62 215.62 -338.81 217.44 C-341.28 219.52 -343.65 221.6 -345.88 223.94 C-348 226 -348 226 -350 226 C-350.66 227.32 -351.32 228.64 -352 230 C-352.66 230 -353.32 230 -354 230 C-354.66 231.32 -355.32 232.64 -356 234 C-356.66 234 -357.32 234 -358 234 C-358.66 235.32 -359.32 236.64 -360 238 C-360.66 238 -361.32 238 -362 238 C-362.27 238.64 -362.54 239.28 -362.81 239.94 C-364 242 -364 242 -367 243 C-367.7 244.31 -368.37 245.65 -369 247 C-370.06 248.25 -371.16 249.47 -372.3 250.64 C-372.95 251.32 -373.6 252 -374.26 252.7 C-374.94 253.4 -375.62 254.09 -376.31 254.81 C-381.93 260.62 -381.93 260.62 -386.86 267.01 C-387.92 268.49 -387.92 268.49 -389 270 C-389.66 270 -390.32 270 -391 270 C-391.27 270.8 -391.54 271.61 -391.81 272.44 C-392.2 273.28 -392.6 274.13 -393 275 C-393.99 275.33 -394.98 275.66 -396 276 C-396.71 277.31 -397.37 278.65 -398 280 C-399.48 282.13 -400.97 284.22 -402.5 286.31 C-416.31 305.49 -428.34 325.39 -438 347 C-438.37 347.8 -438.75 348.6 -439.13 349.42 C-453.04 379.51 -460.51 412.24 -463.27 445.18 C-463.67 449.95 -464.21 454.67 -464.88 459.41 C-466.52 471.49 -467.68 483.62 -468.94 495.75 C-469.45 500.64 -469.95 505.53 -470.46 510.42 C-470.59 511.62 -470.72 512.83 -470.84 514.06 C-472.07 525.8 -473.38 537.52 -474.69 549.24 C-475.23 554.09 -475.76 558.94 -476.28 563.79 C-477.26 568.17 -479.06 571.97 -481 576 C-481.57 577.2 -481.57 577.2 -482.15 578.42 C-483.73 581.7 -485.31 584.98 -486.91 588.25 C-487.29 589.05 -487.68 589.85 -488.07 590.67 C-488.42 591.38 -488.77 592.1 -489.12 592.83 C-493.5 603.66 -490.31 616.24 -488.69 627.38 C-488.46 629 -488.22 630.62 -487.99 632.25 C-487.34 636.83 -486.67 641.42 -486 646 C-485.84 647.09 -485.68 648.18 -485.52 649.3 C-484.43 656.72 -483.3 664.13 -482.12 671.54 C-481.97 672.46 -481.83 673.38 -481.68 674.33 C-481.4 676.11 -481.12 677.88 -480.83 679.65 C-479.89 685.66 -479.89 685.66 -481 689 C-481.54 688.65 -482.07 688.3 -482.62 687.94 C-485.84 686.67 -487.71 687.02 -491 688 C-493.18 690.03 -493.92 691.8 -495 694.56 C-495 699.92 -492.71 704.44 -490 709 C-486.53 711.31 -485.08 711.42 -481 711 C-479.31 709.56 -479.31 709.56 -478 708 C-477.01 708 -476.02 708 -475 708 C-470.29 718.81 -465.71 729.66 -461.33 740.61 C-446.52 777.86 -446.52 777.86 -423 810 C-421.83 811.33 -420.66 812.66 -419.5 814 C-418.33 815.33 -417.17 816.67 -416 818 C-415.34 818.76 -414.67 819.52 -413.99 820.3 C-409.31 825.57 -404.47 830.62 -399.43 835.54 C-396.7 838.22 -394.13 840.97 -391.63 843.86 C-387.95 848.11 -384.05 852.1 -380.06 856.06 C-379.4 856.73 -378.73 857.4 -378.05 858.09 C-374.1 862.03 -370.03 865.76 -365.81 869.41 C-362.52 872.3 -359.51 875.46 -356.5 878.64 C-355.68 879.5 -354.85 880.36 -354 881.25 C-353.18 882.12 -352.35 882.99 -351.5 883.89 C-348.87 886.11 -347.37 886.69 -344 887 C-343.89 885.73 -343.78 884.46 -343.66 883.16 C-343.07 877.79 -341.77 872.7 -340.38 867.5 C-339.9 865.72 -339.43 863.94 -338.96 862.16 C-338.65 860.99 -338.65 860.99 -338.33 859.81 C-338.22 859.21 -338.11 858.61 -338 858 C-338.33 857.67 -338.66 857.34 -339 857 C-339.62 857.21 -340.24 857.41 -340.88 857.62 C-343 858 -343 858 -344.81 856.81 C-346 855 -346 855 -345.94 853 C-343.68 848.19 -338.62 846.93 -334 845 C-333.01 844.34 -332.02 843.68 -331 843 C-327.56 842.66 -324.13 842.91 -320.69 843.06 C-319.75 843.08 -318.81 843.09 -317.85 843.11 C-313.42 843.29 -310.01 843.49 -306.46 846.31 C-303.73 849.29 -302.19 851.13 -301.78 855.15 C-302.03 858.67 -302.23 861.11 -304.6 863.85 C-306.5 865.44 -306.5 865.44 -308.41 866.81 C-310.15 867.93 -310.15 867.93 -311 870 C-310.36 870.29 -309.72 870.58 -309.06 870.88 C-307 872 -307 872 -306 874 C-305.47 879.34 -305.31 883.68 -307.81 888.5 C-308.53 889.33 -309.26 890.15 -310 891 C-310.41 891.58 -310.82 892.15 -311.25 892.75 C-317.56 897.26 -326.65 896.42 -334 896 C-336.39 895.49 -336.39 895.49 -338 895 C-331.39 903.07 -323.69 909.82 -315.81 916.62 C-312.38 919.61 -309.19 922.79 -306 926.03 C-304.06 927.94 -302.06 929.73 -300 931.5 C-297.21 933.9 -294.58 936.38 -292 939 C-289.5 941.54 -286.96 943.94 -284.25 946.25 C-280.65 949.34 -277.33 952.63 -274 956 C-270.8 959.24 -267.61 962.43 -264.12 965.38 C-259.39 969.39 -255.09 973.86 -250.75 978.29 C-250.16 978.88 -249.58 979.48 -248.98 980.09 C-248.19 980.89 -248.19 980.89 -247.39 981.71 C-244.55 984.35 -241.98 984.19 -238.22 984.14 C-234.65 983.92 -231.28 983.18 -227.81 982.31 C-227.13 982.16 -226.44 982.01 -225.74 981.86 C-220.79 980.65 -218.42 978.66 -215 975 C-214.01 975 -213.02 975 -212 975 C-212.19 984.95 -212.19 984.95 -215.31 989 C-216.2 989.66 -217.09 990.32 -218 991 C-218.7 991.6 -219.4 992.2 -220.12 992.81 C-222 994 -222 994 -225 994 C-225 994.66 -225 995.32 -225 996 C-224.14 996.25 -223.29 996.51 -222.41 996.77 C-218.8 998.07 -215.79 999.73 -212.5 1001.69 C-183.75 1018.39 -153.24 1027.09 -120.17 1029.28 C-87.45 1031.47 -55.09 1036.24 -23 1043 C-22.04 1043.2 -21.07 1043.41 -20.08 1043.61 C-17.03 1044.26 -13.98 1044.91 -10.94 1045.56 C-10.01 1045.76 -9.08 1045.96 -8.13 1046.16 C-3.47 1047.17 1.06 1048.32 5.62 1049.71 C10.77 1051.14 14.81 1051.07 20 1050 C21.05 1049.79 21.05 1049.79 22.13 1049.58 C24.28 1049.13 26.42 1048.63 28.56 1048.12 C39.79 1045.48 50.98 1043.07 62.5 1042.26 C63.55 1042.19 63.55 1042.19 64.62 1042.11 C67.47 1041.91 70.32 1041.72 73.18 1041.57 C81.85 1041.08 88.73 1040.56 95 1034 C100 1029 100 1029 103.03 1027.37 C107.02 1024.18 107.25 1021.63 107.88 1016.75 C107.99 1016 108.11 1015.26 108.23 1014.49 C108.51 1012.66 108.76 1010.83 109 1009 C110.98 1009.99 112.96 1010.98 115 1012 C114.86 1010.95 114.71 1009.9 114.56 1008.82 C114.37 1007.45 114.19 1006.07 114 1004.69 C113.9 1004 113.81 1003.31 113.71 1002.6 C113.32 999.7 113 996.92 113 994 C118.11 999.44 122.79 1004.76 126.61 1011.19 C128.2 1013.26 129.61 1014.02 132 1015 C132.21 1014.28 132.41 1013.56 132.62 1012.81 C134.45 1009.07 136.7 1007.51 140 1005 C141.32 1005.66 142.64 1006.32 144 1007 C145.49 1001.56 145.49 1001.56 147 996 C148.32 996 149.64 996 151 996 C151.25 996.64 151.5 997.28 151.75 997.94 C152.8 1000.19 152.8 1000.19 155.08 1000.63 C155.71 1000.75 156.35 1000.87 157 1001 C157.22 1000.47 157.44 999.94 157.66 999.39 C157.98 998.68 158.3 997.98 158.62 997.25 C158.93 996.55 159.23 995.86 159.54 995.14 C161.63 992.08 163.71 990.7 167 989 C170.8 988.76 170.8 988.76 174.75 989.12 C176.06 989.23 177.38 989.34 178.73 989.45 C182 990 182 990 184 992 C183.84 992.95 183.67 993.9 183.5 994.88 C182.79 997.89 182.79 997.89 183.69 1000.31 C184.87 1002.12 184.87 1002.12 186.82 1002.76 C191.21 1003.24 194.67 999.55 198 997 C200.73 994.73 203.39 992.4 206 990 C208 991.94 209.68 993.86 211.44 996.06 C214.94 1000.08 216.35 1000.83 221.62 1001.38 C232.25 1000.99 240.79 994.08 249.18 988.26 C251.79 986.45 254.42 984.69 257.06 982.94 C258.02 982.3 258.99 981.65 259.98 980.99 C263.28 978.82 266.61 976.69 269.94 974.56 C276.75 970.21 283.38 965.63 290 961 C292.15 959.52 294.29 958.04 296.44 956.56 C301.65 952.95 306.82 949.29 311.98 945.59 C315.34 943.18 318.72 940.8 322.12 938.44 C325.66 935.97 329.12 933.42 332.56 930.81 C337.45 927.12 342.42 923.57 347.44 920.06 C353.77 915.63 359.93 911.04 366.02 906.3 C368.81 904.14 371.64 902.06 374.5 900 C379.1 896.68 383.61 893.25 388.1 889.78 C391.68 887 395.3 884.27 398.94 881.56 C407.66 875.04 416.18 868.27 424.67 861.46 C427.16 859.46 429.66 857.47 432.16 855.48 C434.01 853.99 435.85 852.49 437.7 850.98 C438.86 850.05 440.02 849.12 441.19 848.19 C442.21 847.36 443.24 846.52 444.29 845.67 C447 844 447 844 449.36 844.24 C449.9 844.49 450.44 844.74 451 845 C451 847.31 451 849.62 451 852 C452.92 847.42 454.46 842.72 456 838 C456.59 838.15 457.18 838.3 457.79 838.45 C463.74 840.12 463.74 840.12 469.53 838.78 C472.08 836.94 473.37 835.44 475.06 832.81 C478.26 828.04 481.61 823.41 485.06 818.81 C485.56 818.15 486.05 817.48 486.56 816.8 C490.91 811 495.31 805.19 500.88 800.5 C502.98 798.72 505.07 796.93 507.11 795.07 C513.5 789.27 513.5 789.27 518 788 C519.34 792.03 518.25 793.51 516.64 797.41 C516.38 798.05 516.12 798.69 515.85 799.35 C515 801.44 514.12 803.53 513.25 805.62 C512.65 807.08 512.05 808.53 511.45 809.99 C509.65 814.33 507.83 818.67 506 823 C505.24 824.81 505.24 824.81 504.46 826.65 C498.9 839.75 492.87 852.44 486.09 864.95 C484.48 867.97 483 871.05 481.5 874.12 C472.89 891.46 462.38 908.35 451 924 C450.61 924.54 450.21 925.09 449.81 925.65 C440.78 938.16 431.34 950.29 421.42 962.11 C417.57 966.7 413.78 971.35 410 976 C409.27 976.78 408.55 977.56 407.8 978.36 C405.49 981.74 405.37 984.25 405.06 988.31 C404.27 996.14 402.47 1001.05 396.44 1006.17 C391.91 1008.58 388.24 1008.56 383.19 1008.56 C375.28 1008.6 366.89 1008.8 360.94 1014.69 C360.3 1015.45 359.66 1016.21 359 1017 C359.99 1020.63 360.98 1024.26 362 1028 C360.01 1026.73 358.03 1025.46 356.04 1024.19 C351.11 1021.32 345.99 1021.37 340.54 1022.52 C337.92 1023.22 335.34 1024 332.75 1024.81 C331.87 1025.07 330.98 1025.33 330.07 1025.6 C325.76 1026.92 322.53 1028.13 319 1031 C320.35 1035.15 322.08 1037.29 325.31 1040.19 C333.31 1047.98 335.74 1056.07 337 1067 C332.8 1067 330.88 1064.78 328 1062 C321.33 1054.99 321.33 1054.99 320 1051 C303.05 1055.8 289.1 1074.06 278 1087 C270.36 1095.85 270.36 1095.85 266.69 1098.75 C262.84 1101.97 261 1105.14 260 1110 C259.92 1111.37 259.89 1112.74 259.9 1114.11 C259.91 1114.86 259.91 1115.62 259.91 1116.39 C259.92 1117.17 259.93 1117.95 259.94 1118.75 C259.94 1119.94 259.94 1119.94 259.95 1121.15 C259.96 1123.1 259.98 1125.05 260 1127 C259.38 1126.98 258.76 1126.96 258.12 1126.94 C255.27 1126.85 252.42 1126.8 249.56 1126.75 C248.59 1126.72 247.61 1126.68 246.61 1126.65 C240.16 1126.56 234.28 1126.95 229 1131 C225.46 1136.07 225.48 1142.52 225.31 1148.5 C225.26 1149.73 225.26 1149.73 225.21 1150.99 C225.13 1152.99 225.06 1155 225 1157 C218.18 1156.2 213.96 1152.3 209.81 1147.17 C209.35 1146.6 208.9 1146.03 208.44 1145.44 C204.05 1139.69 204.05 1139.69 198 1136 C194.93 1135.98 192.01 1136.45 189 1137 C188.24 1137.13 187.49 1137.27 186.71 1137.4 C184.38 1137.84 182.06 1138.32 179.75 1138.81 C178.93 1138.99 178.1 1139.16 177.25 1139.35 C167.35 1141.51 157.92 1144.1 149 1149 C149.11 1149.61 149.21 1150.23 149.32 1150.86 C149.44 1151.67 149.56 1152.48 149.69 1153.31 C149.82 1154.11 149.94 1154.91 150.07 1155.74 C150 1158 150 1158 148.78 1159.77 C145.46 1162.07 141.87 1161.44 138 1161 C132.63 1159.93 128.27 1157.64 123.62 1154.81 C107.68 1145.22 90.2 1138.35 71.44 1142 C62.97 1143.63 56.89 1143.11 48.57 1140.71 C42.39 1138.98 36.14 1137.86 29.81 1136.81 C28.83 1136.65 27.84 1136.48 26.83 1136.31 C15.83 1134.52 4.92 1133.84 -6.21 1133.83 C-7.34 1133.83 -8.47 1133.83 -9.63 1133.82 C-12.01 1133.82 -14.39 1133.81 -16.77 1133.81 C-20.33 1133.81 -23.89 1133.79 -27.46 1133.78 C-40.87 1133.74 -54.06 1134.25 -67.4 1135.71 C-70.02 1136 -72.64 1136.27 -75.27 1136.54 C-81.21 1137.14 -87.15 1137.77 -93.09 1138.4 C-95.61 1138.67 -98.14 1138.93 -100.66 1139.2 C-101.41 1139.28 -102.16 1139.36 -102.94 1139.44 C-106.98 1139.86 -110.94 1140.08 -115 1140 C-116.42 1137.17 -116.35 1134.53 -116.56 1131.38 C-116.69 1129.59 -116.69 1129.59 -116.82 1127.77 C-116.88 1126.86 -116.94 1125.94 -117 1125 C-117.76 1125.48 -118.52 1125.97 -119.3 1126.46 C-122.95 1128.54 -124.84 1128.62 -129 1128 C-131.29 1126.77 -133.34 1125.35 -135.45 1123.83 C-150.93 1112.74 -168.44 1104.23 -185.29 1095.46 C-188.82 1093.62 -192.33 1091.74 -195.81 1089.81 C-202.19 1086.3 -208.7 1083.07 -215.24 1079.88 C-216.69 1079.15 -218.11 1078.38 -219.53 1077.6 C-225.18 1074.63 -230.15 1074.8 -236.46 1074.98 C-241.81 1075.01 -246.79 1074.14 -252 1073 C-253.74 1072.63 -253.74 1072.63 -255.52 1072.26 C-268.65 1069.15 -280.2 1063.77 -290.52 1055.02 C-293.35 1052.71 -296.26 1050.68 -299.31 1048.69 C-300.76 1047.73 -300.76 1047.73 -302.24 1046.76 C-314.03 1040.58 -327.94 1041.56 -340.84 1041.64 C-364.94 1041.72 -383.73 1033.9 -401 1017 C-418.39 999.02 -425.78 975.08 -430.8 951.19 C-432.48 943.21 -434.52 935.68 -440.25 929.62 C-443.36 927.79 -446.53 926.47 -449.91 925.22 C-454.35 922.62 -455.65 917.51 -457.13 912.83 C-457.71 911.01 -457.71 911.01 -458.31 909.16 C-458.62 908.21 -458.62 908.21 -458.93 907.23 C-463.34 893.46 -468.35 880.03 -473.89 866.67 C-474.88 864.28 -475.86 861.88 -476.83 859.48 C-480.86 849.54 -485.14 839.71 -489.44 829.89 C-491.14 825.98 -492.83 822.07 -494.5 818.14 C-494.9 817.21 -495.3 816.27 -495.71 815.3 C-496.46 813.53 -497.21 811.77 -497.96 810 C-498.3 809.2 -498.64 808.39 -498.99 807.57 C-499.28 806.87 -499.58 806.18 -499.88 805.47 C-500.83 803.37 -501.84 801.32 -502.88 799.27 C-505.05 794.96 -507.01 790.58 -508.94 786.16 C-509.31 785.33 -509.67 784.51 -510.05 783.65 C-511.22 780.98 -512.39 778.3 -513.56 775.62 C-513.96 774.71 -514.36 773.8 -514.77 772.86 C-519.71 761.59 -524.62 750.32 -529.44 739 C-530.08 737.49 -530.08 737.49 -530.74 735.96 C-535.17 725.46 -538.18 716.28 -538.1 704.76 C-538.1 703.99 -538.09 703.22 -538.09 702.43 C-538.09 699.99 -538.08 697.56 -538.06 695.12 C-538.06 693.47 -538.05 691.81 -538.05 690.15 C-538.04 686.1 -538.02 682.05 -538 678 C-535.46 677.29 -533.63 677.01 -530.94 677.06 C-527.81 677.26 -527.81 677.26 -525 675 C-516.53 635.97 -549.94 575.05 -567.38 542.5 C-567.88 541.55 -567.88 541.55 -568.4 540.59 C-569.22 539.05 -570.07 537.52 -570.93 535.99 C-573.98 527.47 -571.18 517.72 -569.75 509.06 C-569.52 507.63 -569.29 506.19 -569.06 504.75 C-568.59 501.86 -568.12 498.96 -567.65 496.06 C-566.92 491.5 -566.22 486.92 -565.52 482.35 C-564.7 476.9 -563.85 471.45 -563 466 C-562.89 465.29 -562.78 464.58 -562.66 463.85 C-561.91 459.04 -561.15 454.23 -560.39 449.42 C-560.13 447.84 -559.88 446.26 -559.64 444.68 C-557.22 429.29 -554.24 414.07 -549.56 399.19 C-549.26 398.21 -548.95 397.23 -548.64 396.22 C-543.18 378.85 -536.2 361.19 -526 346 C-524.93 344.39 -524.93 344.39 -523.83 342.75 C-518.31 334.66 -512.12 327.52 -505.35 320.46 C-504.05 319.05 -502.84 317.56 -501.64 316.06 C-499.1 312.95 -496.17 310.43 -493.11 307.83 C-489.57 304.77 -486.21 301.53 -482.81 298.31 C-481.32 296.91 -479.83 295.5 -478.34 294.09 C-477.61 293.4 -476.88 292.71 -476.13 292 C-473.04 289.09 -469.93 286.2 -466.81 283.31 C-466.31 282.84 -465.81 282.38 -465.29 281.89 C-462.86 279.65 -460.4 277.49 -457.84 275.4 C-455.54 273.45 -453.62 271.61 -451.69 269.31 C-449.77 267.05 -447.84 264.84 -445.8 262.68 C-436.25 252.58 -431.36 242.09 -426.93 229.09 C-426.62 228.19 -426.31 227.29 -425.99 226.37 C-425.73 225.57 -425.46 224.78 -425.19 223.96 C-424.8 222.99 -424.4 222.01 -424 221 C-423.76 220.33 -423.52 219.66 -423.27 218.96 C-419.33 209.57 -411.71 203.06 -404.57 196.05 C-403.14 194.63 -401.71 193.2 -400.28 191.77 C-396.53 188.03 -392.76 184.31 -388.99 180.59 C-385.93 177.56 -382.87 174.52 -379.82 171.48 C-376.16 167.83 -372.49 164.19 -368.82 160.55 C-368.13 159.86 -367.44 159.18 -366.73 158.47 C-352.88 144.74 -352.88 144.74 -346 139 C-341.23 134.97 -341.23 134.97 -336.69 130.69 C-330.58 124.58 -324.1 118.95 -317.31 113.62 C-316.28 112.81 -315.24 112 -314.18 111.16 C-303.54 103.92 -293.07 104.41 -280.75 106 C-267.1 108.22 -267.1 108.22 -254 106 C-252.76 103.7 -252.76 103.7 -251.88 100.81 C-245.04 83.16 -231.01 69.67 -214.09 61.61 C-211.74 60.66 -209.4 59.79 -207 59 C-205.66 58.46 -205.66 58.46 -204.3 57.91 C-200.04 56.73 -196.14 56.75 -191.75 56.81 C-190.94 56.81 -190.12 56.81 -189.28 56.81 C-183.28 56.86 -183.28 56.86 -181 58 C-173.04 58.65 -167 54.38 -161.11 49.41 C-157.19 45.89 -153.41 42.24 -149.64 38.57 C-147.04 36.07 -144.31 33.74 -141.57 31.39 C-140.07 30.06 -138.65 28.62 -137.25 27.19 C-135.15 25.15 -133.78 23.87 -131 23 C-127.65 23.32 -126.41 23.59 -124 26 C-123.45 32.67 -123.78 39.43 -125 46 C-121.35 46 -120.51 45.15 -117.62 43 C-97.2 28.39 -74.33 18.99 -51 10 C-50.05 9.63 -49.11 9.26 -48.13 8.89 C-42.91 6.86 -37.68 4.87 -32.44 2.91 C-30.8 2.3 -29.17 1.68 -27.54 1.06 C-25.22 0.17 -22.89 -0.7 -20.56 -1.56 C-19.88 -1.83 -19.2 -2.09 -18.5 -2.36 C-11.68 -4.84 -6.23 -3.45 0 0 Z M-482 736 C-481.36 739.15 -480.22 741.48 -478.62 744.25 C-475.93 749.46 -474.92 754.54 -474.08 760.29 C-473.26 765.62 -472.02 770.02 -468.1 773.86 C-467.43 774.34 -466.75 774.82 -466.06 775.31 C-465.39 775.8 -464.72 776.29 -464.04 776.8 C-462 778 -460.3 778.56 -458 779 C-459.59 774.87 -461.42 770.87 -463.31 766.88 C-465.44 762.35 -467.53 757.82 -469.56 753.25 C-471.31 749.41 -473.13 745.62 -475.06 741.88 C-475.53 740.96 -475.99 740.05 -476.47 739.12 C-477.82 736.84 -477.82 736.84 -480.18 736.2 C-480.78 736.13 -481.38 736.07 -482 736 Z M-498.25 739.75 C-500.21 741.76 -500.21 741.76 -499.89 743.78 C-498.63 746.92 -496.71 749.15 -494.56 751.75 C-493.76 752.73 -492.96 753.72 -492.13 754.73 C-491.43 755.48 -490.72 756.23 -490 757 C-489.34 757 -488.68 757 -488 757 C-487.67 757.99 -487.34 758.98 -487 760 C-485.65 757.88 -485.65 757.88 -486.93 754.95 C-487.38 753.73 -487.84 752.51 -488.31 751.25 C-489.95 746.85 -491.54 742.46 -493 738 C-496.08 737.69 -496.08 737.69 -498.25 739.75 Z M-486 760 C-485 762 -485 762 -485 762 Z M-325.94 853.5 C-327.42 856.98 -328.27 860.28 -329 864 C-327.8 865.42 -327.8 865.42 -324.31 865.31 C-319.88 865.25 -317.33 864.01 -314 861 C-312.85 858.56 -312.85 858.56 -313 856 C-313.63 854.65 -314.29 853.31 -315 852 C-320.82 851.35 -320.82 851.35 -325.94 853.5 Z M-331.06 874.94 C-332.28 878.9 -333.49 882.87 -334 887 C-332.36 888.64 -330.5 888.21 -328.25 888.25 C-322.76 888.2 -319.88 886.88 -316 883 C-315.68 878.66 -315.55 876.67 -318 873 C-322.59 872.14 -327.54 871.63 -331.06 874.94 Z M-346 888 C-345 890 -345 890 -345 890 Z M-330 889 C-326 890 -326 890 -326 890 Z M115 1012 C116 1014 116 1014 116 1014 Z " fill="#000002" transform="translate(572,61)"/>
<path d="M0 0 C1.1 -0 2.2 -0 3.34 -0.01 C4.56 -0 5.78 -0 7.03 0 C8.32 0 9.61 0 10.94 0 C14.52 -0 18.11 0 21.7 0.01 C25.56 0.01 29.42 0.01 33.29 0.01 C39.99 0.01 46.68 0.01 53.38 0.02 C63.07 0.03 72.75 0.03 82.44 0.03 C98.15 0.03 113.86 0.04 129.57 0.05 C144.83 0.06 160.1 0.06 175.36 0.07 C176.3 0.07 177.24 0.07 178.21 0.07 C182.93 0.07 187.65 0.07 192.36 0.07 C231.52 0.08 270.68 0.1 309.83 0.12 C310.48 1.4 311.13 2.68 311.77 3.96 C312.14 4.68 312.5 5.39 312.87 6.12 C313.94 8.34 314.75 10.52 315.44 12.88 C315.82 14.17 315.82 14.17 316.22 15.48 C316.48 16.39 316.75 17.31 317.02 18.25 C317.32 19.24 317.61 20.22 317.91 21.24 C318.89 24.53 319.86 27.83 320.83 31.12 C322.29 36.02 323.75 40.92 325.21 45.81 C325.58 47.07 325.96 48.32 326.35 49.62 C329.34 59.61 332.49 69.55 335.74 79.46 C337.93 86.16 339.95 92.9 341.86 99.68 C347.7 120.35 353.88 140.99 360.93 161.28 C363.39 169.03 362.79 178.31 359.36 185.68 C353.76 194.67 346.01 202.58 335.65 205.5 C331.68 206.21 328.04 206.01 324.03 205.66 C322.29 205.51 322.29 205.51 320.51 205.36 C319.63 205.28 318.74 205.2 317.83 205.12 C317.84 205.77 317.84 206.42 317.85 207.09 C317.93 222.91 318 238.72 318.04 254.54 C318.06 262.19 318.09 269.84 318.14 277.49 C318.18 284.15 318.2 290.82 318.21 297.49 C318.22 301.02 318.23 304.54 318.26 308.07 C318.29 312.02 318.29 315.96 318.29 319.9 C318.3 321.07 318.32 322.24 318.33 323.44 C318.29 331.35 318.29 331.35 315.93 335.32 C312.67 338.12 310.85 338.25 306.62 338.26 C305.51 338.26 304.4 338.27 303.26 338.27 C302.02 338.27 300.79 338.27 299.52 338.27 C298.22 338.27 296.92 338.28 295.58 338.28 C291.96 338.29 288.34 338.3 284.72 338.3 C280.82 338.3 276.92 338.31 273.02 338.32 C263.59 338.34 254.17 338.35 244.74 338.36 C240.3 338.36 235.87 338.37 231.43 338.37 C216.69 338.39 201.95 338.41 187.2 338.41 C183.38 338.41 179.55 338.42 175.72 338.42 C174.77 338.42 173.82 338.42 172.84 338.42 C157.42 338.43 142.01 338.45 126.59 338.49 C110.78 338.52 94.96 338.54 79.14 338.54 C70.25 338.54 61.37 338.55 52.49 338.58 C44.92 338.6 37.35 338.61 29.79 338.6 C25.93 338.59 22.07 338.59 18.21 338.61 C14.02 338.63 9.84 338.62 5.65 338.61 C4.43 338.62 3.21 338.63 1.95 338.64 C-8.52 338.56 -8.52 338.56 -13.17 334.12 C-15.29 331.11 -15.41 328.61 -15.4 324.98 C-15.4 323.94 -15.4 322.9 -15.4 321.83 C-15.39 320.7 -15.39 319.56 -15.38 318.39 C-15.38 317.2 -15.37 316 -15.37 314.76 C-15.37 311.48 -15.35 308.2 -15.34 304.91 C-15.32 301.48 -15.32 298.05 -15.31 294.61 C-15.3 288.11 -15.28 281.61 -15.25 275.11 C-15.21 263.45 -15.18 251.8 -15.15 240.15 C-15.15 236.73 -15.14 233.31 -15.12 229.89 C-15.1 226.08 -15.09 222.27 -15.08 218.46 C-15.08 217.32 -15.07 216.18 -15.06 215.01 C-15.06 213.46 -15.06 213.46 -15.06 211.89 C-15.05 210.53 -15.05 210.53 -15.05 209.16 C-14.94 207.13 -14.94 207.13 -16.17 206.12 C-17.96 206.03 -19.75 205.94 -21.54 205.88 C-28.55 205.65 -34.33 205.37 -40.17 201.12 C-41.4 200.27 -41.4 200.27 -42.65 199.4 C-50.56 193.53 -57.02 185.97 -59.17 176.12 C-59.96 169.45 -59.32 165.17 -56.22 159.3 C-54.41 155.54 -53.42 151.58 -52.35 147.56 C-51.84 145.69 -51.32 143.83 -50.8 141.96 C-50.4 140.52 -50.4 140.52 -50 139.05 C-48.63 134.22 -47.14 129.42 -45.67 124.62 C-43.41 117.29 -41.24 109.94 -39.17 102.56 C-36.87 94.41 -34.36 86.34 -31.77 78.28 C-27.82 65.96 -24.16 53.56 -20.56 41.14 C-18.07 32.57 -15.57 24.02 -12.92 15.5 C-12.68 14.73 -12.45 13.97 -12.21 13.19 C-10.87 8.95 -9.38 5 -7.17 1.12 C-4.62 -0.15 -2.85 -0 0 0 Z M46.03 11.64 C44.38 15.06 43.63 18.56 42.89 22.26 C42.72 23.08 42.55 23.89 42.37 24.73 C41.81 27.42 41.26 30.12 40.71 32.81 C40.12 35.65 39.52 38.5 38.93 41.34 C38.52 43.3 38.11 45.27 37.7 47.23 C35.55 57.52 33.29 67.79 31.02 78.06 C30.31 81.3 29.59 84.54 28.88 87.78 C28.71 88.55 28.54 89.32 28.36 90.11 C27.13 95.74 25.94 101.37 24.76 107 C23.21 114.4 21.57 121.77 19.83 129.12 C18.75 133.75 17.68 138.38 16.62 143.02 C16.3 144.39 15.98 145.77 15.66 147.14 C15.19 149.16 14.72 151.19 14.26 153.21 C13.85 154.99 13.85 154.99 13.43 156.8 C12.66 160.55 12.66 160.55 12.83 166.12 C27.68 166.12 42.53 166.12 57.83 166.12 C60.63 149.55 62.95 132.95 65.09 116.28 C66.97 101.61 68.95 86.96 71.02 72.31 C73.03 58.1 74.91 43.89 76.54 29.64 C76.83 27.12 77.16 24.61 77.49 22.1 C77.59 21.34 77.69 20.57 77.8 19.79 C78.06 17.8 78.33 15.82 78.6 13.84 C78.68 12.94 78.75 12.05 78.83 11.12 C76.21 8.49 68.87 9.85 65.11 9.83 C62.97 9.81 60.84 9.77 58.71 9.72 C57.36 9.71 56.01 9.7 54.65 9.7 C52.8 9.68 52.8 9.68 50.91 9.65 C47.84 9.85 47.84 9.85 46.03 11.64 Z M134.83 12.12 C133.06 20.18 133.5 28.99 133.2 37.23 C133.11 39.76 133.02 42.29 132.93 44.82 C132.72 50.19 132.53 55.56 132.33 60.94 C132.11 67.16 131.88 73.38 131.65 79.61 C131.56 82.08 131.47 84.55 131.38 87.01 C131.09 94.8 130.72 102.56 130.06 110.32 C129.66 115.29 129.46 120.27 129.27 125.25 C129.23 126.34 129.19 127.43 129.14 128.56 C128.7 141.08 128.77 153.59 128.83 166.12 C143.35 166.12 157.87 166.12 172.83 166.12 C172.94 150.64 172.94 150.64 172.1 135.44 C171.58 128.96 171.42 122.46 171.2 115.96 C171.11 113.31 171.02 110.66 170.93 108.01 C170.69 101.43 170.46 94.85 170.24 88.27 C170.04 82.69 169.85 77.11 169.65 71.53 C169.56 68.94 169.47 66.35 169.38 63.76 C169.1 55.75 168.71 47.78 168.05 39.79 C167.79 36.6 167.65 33.41 167.55 30.2 C167.5 28.51 167.5 28.51 167.44 26.79 C167.37 24.46 167.3 22.14 167.23 19.82 C167.17 18.15 167.17 18.15 167.12 16.45 C167.09 15.45 167.06 14.45 167.02 13.42 C167.09 11.16 167.09 11.16 165.83 10.12 C161.72 9.91 157.6 9.94 153.48 9.94 C151.41 9.94 149.34 9.92 147.27 9.9 C145.97 9.9 144.68 9.89 143.34 9.89 C141.54 9.89 141.54 9.89 139.71 9.88 C136.7 9.82 136.7 9.82 134.83 12.12 Z M224.83 11.12 C224.58 16.18 224.88 20.84 225.7 25.83 C226.9 33.4 227.88 40.99 228.84 48.6 C229.38 52.9 229.93 57.19 230.48 61.49 C230.59 62.37 230.7 63.25 230.82 64.16 C232.68 78.76 234.61 93.34 236.54 107.93 C236.83 110.07 237.11 112.21 237.39 114.36 C238.38 121.85 239.38 129.33 240.39 136.82 C240.68 139 240.97 141.18 241.26 143.36 C241.66 146.3 242.06 149.24 242.46 152.19 C242.57 153.03 242.68 153.88 242.8 154.75 C242.9 155.52 243.01 156.3 243.12 157.1 C243.21 157.76 243.3 158.42 243.4 159.1 C243.9 161.68 243.9 161.68 245.83 166.12 C260.68 166.12 275.53 166.12 290.83 166.12 C290.02 157.7 290.02 157.7 288.42 149.6 C288.13 148.43 287.85 147.26 287.56 146.05 C287.26 144.81 286.96 143.58 286.65 142.31 C286.01 139.65 285.37 136.99 284.74 134.33 C284.58 133.65 284.42 132.98 284.26 132.28 C282.28 123.88 280.57 115.43 278.88 106.97 C277.6 100.62 276.16 94.35 274.56 88.07 C273.1 82.13 271.94 76.12 270.73 70.12 C269.73 65.24 268.67 60.4 267.44 55.57 C265.06 46.25 263.16 36.83 261.16 27.42 C260.64 24.94 260.11 22.47 259.58 19.99 C259.42 19.23 259.26 18.47 259.09 17.68 C258.29 13.8 258.29 13.8 256.83 10.12 C252.44 10.1 248.04 10.08 243.64 10.07 C242.15 10.06 240.65 10.06 239.15 10.05 C237.01 10.04 234.86 10.03 232.71 10.03 C231.42 10.02 230.13 10.01 228.79 10.01 C225.95 9.78 225.95 9.78 224.83 11.12 Z M167.83 35.12 C168.83 37.12 168.83 37.12 168.83 37.12 Z M169.83 75.12 C170.83 77.12 170.83 77.12 170.83 77.12 Z M170.83 103.12 C171.83 105.12 171.83 105.12 171.83 105.12 Z M171.83 130.12 C172.83 132.12 172.83 132.12 172.83 132.12 Z M63.83 189.12 C62.73 190.35 61.65 191.61 60.58 192.87 C54.33 200.09 48.49 203.89 38.96 204.94 C26.63 205.66 18.88 201.04 9.83 193.12 C8.66 195.47 8.71 196.84 8.71 199.46 C8.7 200.37 8.7 201.28 8.7 202.21 C8.7 203.22 8.7 204.22 8.71 205.25 C8.7 206.3 8.7 207.35 8.7 208.44 C8.7 211.93 8.7 215.42 8.7 218.91 C8.7 221.32 8.7 223.74 8.7 226.16 C8.7 231.22 8.7 236.29 8.7 241.36 C8.71 247.87 8.71 254.39 8.7 260.9 C8.7 265.89 8.7 270.88 8.7 275.87 C8.7 278.27 8.7 280.67 8.7 283.08 C8.7 286.43 8.7 289.78 8.71 293.13 C8.7 294.13 8.7 295.13 8.7 296.17 C8.7 297.07 8.7 297.98 8.71 298.92 C8.71 299.71 8.71 300.5 8.71 301.32 C8.64 303.15 8.64 303.15 9.83 304.12 C12.79 304.21 15.73 304.24 18.68 304.22 C19.57 304.22 20.45 304.22 21.37 304.22 C24.21 304.21 27.05 304.2 29.9 304.19 C31.82 304.18 33.74 304.18 35.66 304.17 C40.39 304.16 45.11 304.14 49.83 304.12 C49.83 303.51 49.83 302.9 49.83 302.27 C49.83 295.84 49.87 289.42 49.93 282.99 C49.95 280.6 49.96 278.21 49.95 275.82 C49.93 248.87 49.93 248.87 58.58 239.17 C60.23 237.54 61.87 236.35 63.83 235.12 C64.49 234.71 65.15 234.3 65.82 233.88 C72.81 230.17 80.61 229.96 88.27 231.67 C96.45 234.46 100.67 239.88 104.83 247.12 C106.46 250.67 107.09 253.46 107.14 257.36 C107.15 258.37 107.17 259.39 107.19 260.44 C107.2 261.53 107.2 262.61 107.21 263.73 C107.23 264.85 107.25 265.98 107.26 267.13 C107.32 270.71 107.36 274.29 107.4 277.87 C107.44 281.47 107.49 285.06 107.54 288.65 C107.57 290.89 107.6 293.13 107.62 295.36 C107.63 296.37 107.65 297.37 107.66 298.41 C107.67 299.3 107.68 300.18 107.69 301.1 C107.61 303.12 107.61 303.12 108.83 304.12 C111.36 304.2 113.87 304.22 116.4 304.19 C117.46 304.18 117.46 304.18 118.55 304.17 C120.31 304.16 122.07 304.14 123.83 304.12 C123.84 303.21 123.84 303.21 123.85 302.28 C123.92 295.92 124 289.56 124.1 283.2 C124.13 280.83 124.16 278.46 124.18 276.09 C124.21 272.67 124.27 269.26 124.32 265.84 C124.33 264.79 124.34 263.74 124.34 262.65 C124.55 252.32 127.45 244.56 134.83 237.12 C143.04 231.3 150.88 230.14 160.83 231.12 C168.93 233.51 174.69 238.71 178.89 245.95 C182.26 253.12 181.96 260.88 181.9 268.62 C181.89 270.1 181.89 270.1 181.89 271.6 C181.87 274.74 181.85 277.87 181.83 281 C181.81 285.14 181.79 289.28 181.77 293.43 C181.76 294.38 181.76 295.34 181.75 296.33 C181.74 297.65 181.74 297.65 181.74 298.99 C181.73 299.77 181.73 300.54 181.72 301.34 C181.64 303.15 181.64 303.15 182.83 304.12 C185.53 304.2 188.2 304.22 190.9 304.19 C191.66 304.18 192.41 304.18 193.2 304.17 C195.08 304.16 196.95 304.14 198.83 304.12 C198.82 303.27 198.82 303.27 198.81 302.41 C198.75 296.47 198.7 290.53 198.67 284.59 C198.65 282.38 198.63 280.17 198.61 277.96 C198.57 274.77 198.55 271.57 198.54 268.38 C198.52 266.92 198.52 266.92 198.49 265.42 C198.49 255.7 200.4 246.77 207.33 239.57 C214.56 232.86 221.75 230.38 231.6 230.65 C236.66 231.39 240.49 233.57 244.83 236.12 C245.82 236.45 246.81 236.78 247.83 237.12 C248.86 238.9 248.86 238.9 249.83 241.12 C251.12 243.39 252.41 245.65 253.71 247.9 C255.59 251.61 255.96 254.92 256.01 259.04 C256.02 260.02 256.03 260.99 256.05 262 C256.06 263.56 256.06 263.56 256.08 265.16 C256.11 267.37 256.15 269.58 256.18 271.79 C256.23 275.28 256.27 278.77 256.31 282.26 C256.35 285.62 256.4 288.99 256.46 292.35 C256.47 293.92 256.47 293.92 256.48 295.53 C256.5 296.5 256.51 297.46 256.53 298.46 C256.55 299.74 256.55 299.74 256.56 301.05 C256.65 303.34 256.65 303.34 258.83 305.12 C276.16 304.63 276.16 304.63 293.83 304.12 C294.16 268.15 294.49 232.18 294.83 195.12 C290.88 196.11 289.39 197.28 286.38 199.85 C279.9 205.2 271.69 205.59 263.56 204.94 C253.96 203.03 246.63 196.68 240.83 189.12 C237.44 190.26 236.81 191.14 234.65 193.87 C228.98 200.5 222.61 204.34 213.83 205.12 C202.15 205.39 193.98 201.52 185.43 193.77 C183.83 192.12 183.83 192.12 181.83 189.12 C181.17 189.12 180.51 189.12 179.83 189.12 C179.32 189.97 178.8 190.81 178.27 191.69 C174.57 197.54 168.37 201.98 161.83 204.12 C151.88 205.87 143.13 205.61 134.58 199.94 C130.34 196.75 127.08 193.3 123.83 189.12 C120.44 190.26 119.81 191.14 117.65 193.87 C111.99 200.5 105.6 204.35 96.83 205.12 C86.38 205.23 79.8 202.69 71.83 196.12 C71.17 196.12 70.51 196.12 69.83 196.12 C69.17 194.8 68.51 193.48 67.83 192.12 C67.17 192.12 66.51 192.12 65.83 192.12 C65.34 190.64 65.34 190.64 64.83 189.12 C64.5 189.12 64.17 189.12 63.83 189.12 Z " fill="#000002" transform="translate(416.1655673980713,319.8769521713257)"/>
<path d="M0 0 C1.17 0.38 2.35 0.76 3.56 1.15 C19.12 6.24 34.31 11.74 49 19 C49.77 19.38 50.55 19.76 51.35 20.15 C77.01 32.92 100.75 48.77 122 68 C122.87 68.78 122.87 68.78 123.76 69.58 C130.96 76.02 137.73 82.63 144 90 C144.75 90.86 145.5 91.72 146.27 92.61 C151.51 98.79 155.8 105.25 159.93 112.21 C161.86 115.44 163.87 118.62 165.88 121.81 C166.73 123.18 167.58 124.54 168.44 125.91 C168.86 126.59 169.29 127.26 169.73 127.96 C170.97 129.94 172.2 131.93 173.44 133.91 C180.9 145.87 188.43 157.78 195.97 169.69 C203.95 182.29 211.81 194.97 219.65 207.67 C225.99 217.94 232.37 228.19 238.83 238.4 C242.94 244.9 246.99 251.44 251 258 C251.91 259.48 252.82 260.96 253.72 262.45 C254.69 264.03 255.66 265.61 256.62 267.19 C257.07 267.91 257.51 268.64 257.97 269.38 C258.86 270.84 259.74 272.3 260.61 273.77 C261.98 276.02 261.98 276.02 263.57 278.16 C268.98 285.96 269.69 294.33 270.75 303.5 C270.94 305.04 271.14 306.57 271.34 308.11 C272.44 316.72 273.39 325.35 274.32 333.98 C274.77 338.13 275.3 342.25 275.94 346.38 C276.99 353.52 277.78 360.69 278.56 367.88 C278.69 369.02 278.82 370.17 278.95 371.35 C280.64 387.22 281.21 403.05 281.56 419 C281.61 420.85 281.65 422.71 281.69 424.56 C281.8 429.04 281.9 433.52 282 438 C286.6 437.61 286.6 437.61 289.91 434.67 C290.7 433.23 290.7 433.23 291.5 431.75 C294.24 427.1 296.4 423.86 301 421 C303.38 421.19 303.38 421.19 305 422 C304.57 422.94 304.15 423.88 303.71 424.84 C288.45 460.55 283.55 503.54 282 542 C281.71 541.4 281.42 540.8 281.12 540.19 C279.95 537.81 279.95 537.81 278 535 C274.5 515.24 277.17 494.38 279.66 474.65 C279.81 473.52 279.81 473.52 279.95 472.36 C280.13 470.95 280.31 469.53 280.5 468.11 C280.9 464.97 281.02 463.06 280 460 C279.46 460.66 278.93 461.32 278.38 462 C276 464 276 464 273.06 464.56 C268.89 463.8 267.63 462.29 265 459 C264.32 455.55 264.06 452.37 263.91 448.88 C263.62 445.13 263.18 443.22 260.77 440.27 C259.86 439.52 258.94 438.77 258 438 C257.13 437.28 256.25 436.56 255.35 435.82 C254.45 435.12 253.55 434.41 252.62 433.69 C247.83 429.78 243.8 425.87 240 421 C239.19 419.98 238.38 418.96 237.55 417.9 C230.14 408.29 224.07 398.03 218.3 387.36 C217.17 385.32 215.99 383.32 214.77 381.33 C211.79 376.04 210.46 372.55 212.04 366.53 C212.43 365.21 212.84 363.89 213.25 362.58 C217.69 348.07 216.3 331.48 209.49 318.02 C205.66 311.41 201.23 307.29 195 303 C178.49 291.18 171.74 279.5 164.81 260.5 C164.39 259.37 163.96 258.23 163.53 257.07 C158.76 244.14 155.8 231.86 155.94 218.06 C155.94 217.19 155.95 216.31 155.95 215.41 C155.96 213.27 155.98 211.14 156 209 C151.78 209.64 148.39 211.09 144.56 212.94 C137.27 216.44 131.15 218.92 123 218 C113.12 214.43 104.28 206.04 95.81 199.91 C91.35 196.68 86.86 193.49 82.31 190.38 C77.12 186.8 72.02 183.11 66.94 179.37 C55.78 171.15 44.56 163.03 33.14 155.18 C29.74 152.82 26.37 150.41 23 148 C17.44 144.01 11.84 140.09 6.21 136.21 C4.08 134.74 1.95 133.27 -0.18 131.79 C-11.95 123.6 -23.84 115.6 -36 108 C-36.7 107.56 -37.41 107.12 -38.13 106.66 C-51.39 98.34 -64.78 90.25 -78.39 82.51 C-80.04 81.56 -81.67 80.56 -83.27 79.52 C-89.5 75.59 -95.05 75.23 -102.31 75 C-130.44 73.43 -154.94 64.25 -175 44 C-179.87 38.32 -182.63 32.74 -182.29 25.07 C-181.39 18.53 -179.19 12.33 -174 8 C-163.17 0.46 -147.79 -0.29 -135 1 C-131.18 2.03 -127.6 3.35 -124 5 C-123.73 4.25 -123.46 3.5 -123.18 2.73 C-122.07 0.17 -120.98 -1.58 -119.19 -3.69 C-118.71 -4.27 -118.23 -4.85 -117.73 -5.45 C-96.2 -24.74 -24.36 -8.03 0 0 Z M282 457 C283 460 283 460 283 460 Z " fill="#000002" transform="translate(832,104)"/>
<path d="M0 0 C2.57 3.85 2.26 7.86 2.19 12.31 C2.19 13.41 2.19 13.41 2.19 14.54 C2.15 19.12 1.75 23.48 1 28 C8.97 29.62 8.97 29.62 17 29 C20.1 26.34 21.86 23.63 24 20.16 C28.57 12.94 35.45 9.21 43.41 6.58 C47.7 5.62 51.03 6.01 55 8 C55 8.66 55 9.32 55 10 C55.66 10 56.32 10 57 10 C58.43 12.35 59.09 13.48 58.62 16.25 C58.42 16.83 58.21 17.4 58 18 C57.55 17.03 57.09 16.06 56.62 15.06 C55.34 11.93 55.34 11.93 53 11 C46.84 10.12 43.78 12.06 39.02 15.59 C37 17 37 17 34 18 C32.92 19.84 32.92 19.84 32 22 C30.74 24.05 29.43 26.07 28.12 28.1 C26.85 30.1 26.85 30.1 26 33 C33.86 33.71 41.68 34.12 49.56 34.19 C50.32 34.2 51.08 34.21 51.87 34.23 C55.98 34.23 59.41 34.12 63 32 C64.38 28.46 64.38 28.46 65 25 C67 27 67 27 67.25 30.38 C67.02 33.78 66.81 35.23 65 38 C63.19 39.05 63.19 39.05 61 39.75 C60.3 39.99 59.6 40.23 58.88 40.48 C50.26 42.03 41.89 40.53 33.38 39 C32.28 38.81 31.18 38.62 30.04 38.42 C27.36 37.96 24.68 37.48 22 37 C21.75 37.81 21.5 38.63 21.25 39.47 C19.78 43.63 17.96 47.53 16.06 51.5 C15.72 52.23 15.37 52.97 15.01 53.72 C13.05 57.84 11.05 61.93 9 66 C9.33 66.33 9.66 66.66 10 67 C11.55 66.78 11.55 66.78 13.12 66.56 C23.75 65.12 35.62 65.09 46 68 C47.86 69.57 47.86 69.57 49 71 C47.95 70.98 46.89 70.95 45.81 70.93 C24.9 70.33 24.9 70.33 6 78 C4.67 80.56 4.67 80.56 4 83 C3.67 82.34 3.34 81.68 3 81 C2.01 81 1.02 81 0 81 C-0.12 81.58 -0.24 82.15 -0.37 82.75 C-4.59 97.83 -19.48 116.02 -33 124 C-40.26 127.87 -49.41 129.06 -57.44 127.25 C-63.02 125.29 -66.87 123.17 -70 118 C-69.91 113.57 -68.57 110.56 -66 107 C-60.47 104.01 -54.23 102.55 -48 102 C-47.5 102.99 -47.5 102.99 -47 104 C-47.74 104.09 -48.47 104.17 -49.23 104.26 C-55.58 105.17 -55.58 105.17 -61.06 108.31 C-62.94 110.92 -64.28 112.87 -65 116 C-64.29 119.03 -63.13 119.91 -60.62 121.75 C-52.56 124.53 -44.79 123.64 -37.11 120.13 C-14.74 108.18 -4.83 74.05 4.5 52.3 C6.41 48.1 8.6 44.11 10.93 40.14 C12.22 37.95 12.22 37.95 12 35 C8.7 34.34 5.4 33.68 2 33 C0.47 36.55 -0.51 39.94 -1.26 43.73 C-8.39 78.26 -8.39 78.26 -18 93 C-18.67 94.05 -19.33 95.11 -20.02 96.2 C-23.97 102.36 -23.97 102.36 -26 105 C-26.66 105 -27.32 105 -28 105 C-28.25 105.59 -28.51 106.17 -28.77 106.78 C-32.11 112.81 -38.56 117 -45 119 C-48.33 119.49 -51.64 119.8 -55 120 C-55 119.01 -55 118.02 -55 117 C-47.25 115.88 -47.25 115.88 -45 117 C-44.67 116.34 -44.34 115.68 -44 115 C-43.07 114.57 -42.14 114.13 -41.19 113.69 C-37.73 111.85 -36.32 110.09 -34 107 C-33.34 106.55 -32.68 106.09 -32 105.62 C-29.72 103.78 -28.61 101.8 -27.25 99.23 C-26 97 -26 97 -24.25 94.39 C-15.56 81.29 -10.49 66.33 -6.79 51.13 C-6 48 -6 48 -4.91 44.99 C-3.91 41.71 -3.8 39.04 -3.88 35.62 C-3.89 34.57 -3.91 33.51 -3.93 32.41 C-3.95 31.62 -3.98 30.82 -4 30 C-4.68 29.95 -5.36 29.9 -6.06 29.85 C-11.41 29.44 -16.7 28.92 -22.01 28.16 C-33.91 26.5 -42.85 27.48 -54 32 C-55.49 32.5 -55.49 32.5 -57 33 C-58.17 35.42 -58.17 35.42 -59 38 C-59.33 38.66 -59.66 39.32 -60 40 C-60.85 46.44 -60.06 51.35 -56.64 56.88 C-53.88 60.45 -50.56 63.25 -47 66 C-47.33 66.66 -47.66 67.32 -48 68 C-64.46 56.24 -64.46 56.24 -66.61 47.53 C-67.48 41.77 -66.91 38.03 -64 33 C-59.04 26.8 -52.58 24.45 -44.97 23.32 C-31.44 21.88 -14.94 22.69 -2 27 C-2 25.35 -2 23.7 -2 22 C-1.67 22 -1.34 22 -1 22 C-1.01 21 -1.02 20 -1.04 18.96 C-1.04 17.62 -1.05 16.28 -1.06 14.94 C-1.07 13.63 -1.09 12.32 -1.1 10.96 C-1 7.18 -0.61 3.72 0 0 Z " fill="#000002" transform="translate(296,686)"/>
<path d="M0 0 C-0.37 6.75 -3.17 11.47 -6.5 17.25 C-11.77 26.63 -16.49 36.14 -21.01 45.9 C-22.48 49.01 -24.05 52.06 -25.62 55.12 C-30.48 64.73 -34.71 74.74 -38 85 C-36.15 83.33 -34.91 81.84 -33.66 79.67 C-31.94 76.91 -30.06 74.79 -27.81 72.44 C-23.49 67.76 -20.12 62.8 -16.82 57.37 C-15 55 -15 55 -12.83 54.1 C-11.93 54.05 -11.93 54.05 -11 54 C-10 55 -10 55 -9.93 56.94 C-9.97 58.2 -9.97 58.2 -10.01 59.49 C-10.53 79.15 -10.53 79.15 -3 97 C0.62 100.05 3.34 100.33 8 100 C7.9 98.91 7.79 97.81 7.69 96.69 C7.65 90.84 10.39 86.09 13 81 C14.18 78.64 14.01 77.6 13.77 75 C12.13 54.52 12.13 54.52 18.88 46.06 C22.21 42.58 25.12 40.45 29.88 39.31 C34.14 40.25 35.82 42.3 38.54 45.63 C40.46 48.74 40.93 51.59 41.48 55.16 C41.65 55.76 41.82 56.37 42 57 C44.41 58.47 44.41 58.47 47 59 C48.99 61.98 49.34 63.14 49.69 66.56 C49.82 67.74 49.82 67.74 49.95 68.94 C50 71 50 71 49 73 C48.34 72.67 47.68 72.34 47 72 C46.62 70.34 46.29 68.68 46 67 C45.67 66.34 45.34 65.68 45 65 C44.01 65 43.02 65 42 65 C41.83 66.05 41.66 67.1 41.48 68.18 C40.17 75.95 38.76 82.99 35 90 C34.33 91.33 33.66 92.67 33 94 C34.49 94.5 34.49 94.5 36 95 C35.11 95.24 34.22 95.49 33.3 95.74 C29.79 97.08 27.88 98.61 25.12 101.12 C19.81 105.55 19.81 105.55 15.62 105.56 C13.01 105.16 10.55 104.69 8 104 C7.01 104.5 7.01 104.5 6 105 C1.14 105.59 -1.93 105.5 -6.06 102.75 C-13.09 96.9 -17.65 87.97 -19 79 C-19.13 76.31 -19.1 73.7 -19 71 C-22.76 74.15 -26.35 77.22 -29.5 81 C-31.63 83.55 -33.56 85.32 -36.12 87.38 C-40.2 90.87 -41.65 93.9 -43 99 C-43.54 100.81 -44.08 102.63 -44.62 104.44 C-44.86 105.28 -45.1 106.13 -45.35 107 C-46 109 -46 109 -47 110 C-49.31 110.38 -49.31 110.38 -52 110 C-54.85 107.15 -56.17 104.89 -57 101 C-56.47 100.6 -55.93 100.21 -55.39 99.8 C-49.73 95.29 -47.33 91.36 -45.12 84.56 C-44.46 82.68 -43.79 80.8 -43.12 78.92 C-42.78 77.95 -42.43 76.97 -42.08 75.97 C-40.28 71.02 -38.24 66.17 -36.19 61.31 C-35.77 60.33 -35.36 59.34 -34.93 58.32 C-34.07 56.28 -33.21 54.23 -32.35 52.19 C-30.94 48.85 -29.53 45.5 -28.13 42.16 C-23.59 31.35 -19.05 20.57 -14 10 C-13.47 8.79 -13.47 8.79 -12.93 7.56 C-11.49 4.4 -10.23 2.2 -7.56 -0.06 C-4.57 -1.16 -3 -0.94 0 0 Z M24 48 C19.64 55.06 16.95 61.7 18 70 C18.97 72.19 18.97 72.19 20 74 C20.5 72.98 20.5 72.98 21 71.94 C25.61 65.16 31.24 61.36 39 59 C38.43 57.25 37.84 55.5 37.25 53.75 C36.93 52.78 36.6 51.8 36.27 50.8 C34.91 47.79 33.53 46.09 31 44 C27.75 44 26.33 45.84 24 48 Z M36 64 C30.92 66.35 26.72 69.86 23 74 C21.82 75.24 21.82 75.24 20.62 76.5 C18.77 78.84 18.77 78.84 19.06 81.44 C21.03 87.47 21.03 87.47 25.69 91.38 C26.83 91.68 26.83 91.68 28 92 C33.09 83.36 37.25 75.11 38 65 C37.34 64.67 36.68 64.34 36 64 Z M16 82 C12.5 89.68 12.5 89.68 12 98 C14.67 99.39 14.67 99.39 18 100 C21.37 98.26 21.37 98.26 24 96 C22.47 91.28 20.76 86.64 19 82 C18.01 82 17.02 82 16 82 Z M-52 102 C-51.67 102.66 -51.34 103.32 -51 104 C-50.67 103.34 -50.34 102.68 -50 102 C-50.66 102 -51.32 102 -52 102 Z " fill="#000002" transform="translate(820,693)"/>
<path d="M0 0 C0.5 0.5 0.5 0.5 1 1 C0.57 6.22 -0.87 10.62 -2.94 15.38 C-4.97 20.22 -6.61 24.88 -7.57 30.06 C-8.28 33.24 -9.62 36.05 -11 39 C-10.34 39 -9.68 39 -9 39 C-8.81 38.36 -8.61 37.72 -8.41 37.07 C-8.15 36.24 -7.89 35.41 -7.62 34.56 C-7.37 33.74 -7.11 32.92 -6.85 32.07 C-6 30 -6 30 -4 29 C-2.99 27.34 -1.99 25.67 -1 24 C5.46 15.81 12.64 8.66 23 6 C23 6.66 23 7.32 23 8 C23.66 8 24.32 8 25 8 C25.29 14.47 24.26 19.9 22.56 26.12 C20.47 33.99 20.47 33.99 19 42 C23 39.83 25.84 37.25 29 34 C29.99 33.34 30.98 32.68 32 32 C30.57 36.21 28.51 39.15 25.69 42.56 C24.93 43.49 24.17 44.42 23.39 45.38 C21.06 47.94 18.87 50.06 16 52 C14.68 52 13.36 52 12 52 C10.93 48.79 11.06 47.75 11.74 44.54 C11.92 43.66 12.1 42.78 12.28 41.88 C12.48 40.95 12.67 40.02 12.88 39.06 C14.43 31.36 15.67 23.87 16 16 C0.24 24.04 -10.6 40.59 -16 57 C-16.99 57 -17.98 57 -19 57 C-20.18 52.78 -19.72 49.94 -18.56 45.75 C-17.49 42.43 -17.49 42.43 -17 39 C-17.66 39 -18.32 39 -19 39 C-19.24 39.56 -19.48 40.11 -19.73 40.68 C-21.28 43.5 -23.16 45.67 -25.31 48.06 C-26.45 49.35 -26.45 49.35 -27.61 50.66 C-31.06 54.04 -33.7 55.81 -38.5 56.5 C-42 56 -42 56 -44.88 54.12 C-47.75 49.89 -48.12 46.06 -48 41 C-47.67 39.67 -47.34 38.33 -47 37 C-47.5 36.5 -47.5 36.5 -48 36 C-48 37.32 -48 38.64 -48 40 C-48.66 40 -49.32 40 -50 40 C-50.26 40.57 -50.52 41.15 -50.79 41.74 C-52.09 44.17 -53.57 46.05 -55.38 48.12 C-56.25 49.15 -56.25 49.15 -57.15 50.2 C-59.92 52.9 -62.11 53.89 -65.94 54.38 C-70.02 53.88 -71.43 53.25 -74 50 C-75.87 41.14 -72.7 32.71 -67.91 25.32 C-59.86 13.66 -50.04 3.26 -35.46 0.52 C-33.31 0.44 -33.31 0.44 -30 1 C-27.66 4.5 -27.35 6.37 -27.41 10.49 C-28.16 13.7 -29.58 15.28 -31.75 17.75 C-40.48 27.81 -40.58 39.37 -40 52 C-39.01 52 -38.02 52 -37 52 C-37 52.66 -37 53.32 -37 54 C-27.36 49.38 -21.63 41.42 -17 32 C-16.34 32 -15.68 32 -15 32 C-14.47 29.46 -13.95 26.92 -13.44 24.38 C-13.29 23.66 -13.13 22.95 -12.98 22.21 C-11.91 16.8 -12.26 12.65 -13.75 7.31 C-14 5 -14 5 -12.94 3.31 C-8.94 0.6 -4.8 -0.41 0 0 Z M-56.93 20.36 C-65.85 31.67 -65.85 31.67 -70.25 45 C-70.17 45.66 -70.08 46.32 -70 47 C-65.16 48.12 -65.16 48.12 -60.52 46.82 C-54.16 42.24 -49.35 35.75 -48 28 C-48.66 28 -49.32 28 -50 28 C-49.67 27.01 -49.34 26.02 -49 25 C-48.37 24.7 -47.74 24.4 -47.1 24.09 C-44.4 22.69 -43.78 21.26 -42.44 18.56 C-40.94 15.58 -39.65 13.09 -37 11 C-34.31 11.31 -34.31 11.31 -32 12 C-32.28 8.18 -32.28 8.18 -34 5 C-43.26 3.87 -51.43 13.94 -56.93 20.36 Z M-10 6 C-9.67 6.99 -9.34 7.98 -9 9 C-9 8.01 -9 7.02 -9 6 C-9.33 6 -9.66 6 -10 6 Z M-12 39 C-11 41 -11 41 -11 41 Z " fill="#000002" transform="translate(412,743)"/>
<path d="M0 0 C1.88 1.31 1.88 1.31 3 3 C3 3.99 3 4.98 3 6 C1.76 6.08 0.52 6.16 -0.75 6.25 C-3.67 6.63 -4.97 6.98 -7.5 8.62 C-9.57 11.91 -9.21 14.15 -9 18 C-8.46 20.33 -7.83 22.65 -7.12 24.94 C-5.62 29.94 -4.22 34.92 -3 40 C-1.16 40.71 -1.16 40.71 1 41 C4.29 38.58 7.19 35.96 10 33 C8.6 37.9 6.02 40 2 43 C1.13 43.41 0.27 43.83 -0.62 44.25 C-3.83 46.61 -4.69 49.29 -6.11 52.94 C-7 55 -7 55 -9 57 C-15.33 58.54 -20.27 58.3 -26 55 C-30.96 51.5 -33.16 48.18 -36 43 C-36.82 43.92 -37.64 44.83 -38.48 45.77 C-39.57 46.97 -40.66 48.17 -41.75 49.38 C-42.29 49.98 -42.83 50.58 -43.38 51.2 C-43.91 51.78 -44.44 52.36 -44.98 52.96 C-45.47 53.5 -45.95 54.03 -46.44 54.58 C-49.29 57.18 -51.62 57.95 -55.44 58.44 C-59 58 -59 58 -61.88 56.12 C-64.46 52.32 -64.63 49.63 -64.76 45.11 C-64.88 44.07 -64.88 44.07 -65 43 C-65.66 42.67 -66.32 42.34 -67 42 C-67.26 42.57 -67.52 43.15 -67.79 43.74 C-69.09 46.17 -70.57 48.05 -72.38 50.12 C-73.25 51.15 -73.25 51.15 -74.15 52.2 C-76.96 54.93 -79.11 55.91 -83 56.31 C-86.37 55.96 -87.74 55.52 -90 53 C-90.25 50.31 -90.25 50.31 -90 48 C-90.99 47.67 -91.98 47.34 -93 47 C-87.01 29.67 -78.54 14.03 -61.5 5.56 C-56.33 3.33 -52.58 1.97 -47 3 C-44.36 5.15 -44.07 6.53 -43.56 9.88 C-44.27 14.93 -47 17.98 -50.5 21.56 C-58.02 30.58 -57.51 42.97 -57 54 C-56.01 54 -55.02 54 -54 54 C-54 54.66 -54 55.32 -54 56 C-46.73 52.74 -41.08 47.46 -37.68 40.16 C-37.05 38.43 -36.47 36.69 -35.95 34.93 C-35 33 -35 33 -33.02 32.16 C-31 32 -31 32 -29 33 C-28.79 32.24 -28.59 31.47 -28.38 30.69 C-24.76 20.99 -18.38 6.87 -9.38 1.25 C-5.89 -0.04 -3.66 -0.58 0 0 Z M-73.86 22.21 C-83.57 34.52 -83.57 34.52 -87 49 C-84.04 50.48 -82.3 50.44 -79 50 C-72.69 46.11 -68.18 40.17 -65.62 33.31 C-65.06 30.31 -64.89 28.79 -66 26 C-64.89 25.75 -64.89 25.75 -63.75 25.5 C-60.22 23.58 -59.52 21.58 -57.99 17.97 C-56.91 15.82 -55.89 14.49 -54 13 C-51.31 13.31 -51.31 13.31 -49 14 C-49.28 10.18 -49.28 10.18 -51 7 C-60.18 5.88 -68.38 15.84 -73.86 22.21 Z M-16.41 16.24 C-18.12 18.13 -19.26 19.99 -20.48 22.23 C-20.92 23.03 -21.36 23.84 -21.82 24.66 C-22.27 25.5 -22.72 26.33 -23.19 27.19 C-23.65 28.03 -24.11 28.88 -24.59 29.75 C-25.73 31.83 -26.87 33.91 -28 36 C-25.53 38.61 -23.51 39.79 -20.12 41.06 C-19.28 41.38 -18.44 41.7 -17.57 42.04 C-16.72 42.35 -15.87 42.67 -15 43 C-13.33 43.66 -11.66 44.33 -10 45 C-11.32 36.61 -11.32 36.61 -13.12 28.31 C-14.18 23.81 -14.15 19.61 -14 15 C-15.19 14.89 -15.19 14.89 -16.41 16.24 Z M-64 37 C-64.33 37.99 -64.66 38.98 -65 40 C-64.34 40 -63.68 40 -63 40 C-63.33 39.01 -63.66 38.02 -64 37 Z M-29 43 C-28.66 46.17 -28 47 -25.56 49.19 C-21.79 51.86 -19.66 52.56 -15 52 C-12.8 49.54 -12.8 49.54 -11 47 C-13.44 46.33 -15.87 45.66 -18.31 45 C-19 44.81 -19.69 44.62 -20.4 44.42 C-23.36 43.62 -25.93 43 -29 43 Z " fill="#000002" transform="translate(571,741)"/>
<path d="M0 0 C0 0.66 0 1.32 0 2 C-0.95 2.23 -1.9 2.45 -2.88 2.69 C-6.16 3.65 -6.16 3.65 -7.05 6.32 C-7.52 7.64 -7.52 7.64 -8 9 C-8.78 10.42 -9.58 11.84 -10.38 13.25 C-13.69 19.79 -14.99 26.69 -16.52 33.81 C-17.27 37.23 -18.13 40.61 -19 44 C-20.02 47.99 -21.01 51.98 -21.86 56.01 C-26.27 76.64 -33.54 100.11 -48 116 C-48.96 117.06 -48.96 117.06 -49.93 118.14 C-56.41 124.96 -63.5 130.3 -73.11 131.34 C-85.54 131.49 -92.94 127.4 -102 119 C-104.93 115.64 -106.49 113.47 -107 109 C-106.01 109 -105.02 109 -104 109 C-102.89 110.57 -102.89 110.57 -101.81 112.69 C-98.29 118.65 -93.68 121 -87.31 123.38 C-76.57 125.52 -67.07 122.79 -58 117 C-55.08 114.58 -55.08 114.58 -53 112 C-52.22 111.3 -51.43 110.6 -50.62 109.88 C-35.23 93.02 -32.41 67.57 -28 45.9 C-26.41 38.1 -24.75 30.49 -22 23 C-22.5 23.5 -22.5 23.5 -23 24 C-23.61 24.57 -24.22 25.15 -24.86 25.74 C-31.45 32.69 -35.06 42.06 -38.51 50.86 C-40.42 55.73 -42.61 60.35 -45 65 C-45.66 65 -46.32 65 -47 65 C-47 64.34 -47 63.68 -47 63 C-47.99 62.67 -48.98 62.34 -50 62 C-49.72 61.11 -49.45 60.21 -49.16 59.29 C-44.99 45.38 -42.41 30.13 -47 16 C-53.06 16.3 -56.51 19.28 -61 23 C-57.96 16.79 -53.77 11.4 -47 9 C-44.47 9.23 -43.28 9.77 -41.31 11.38 C-38.79 14.5 -38.88 17.48 -38.9 21.32 C-38.91 22.87 -38.91 22.87 -38.91 24.44 C-38.92 26.05 -38.92 26.05 -38.94 27.69 C-38.94 28.77 -38.95 29.85 -38.95 30.97 C-38.96 33.65 -38.98 36.32 -39 39 C-38.4 38.01 -37.79 37.03 -37.17 36.01 C-36.37 34.71 -35.56 33.42 -34.75 32.12 C-34.35 31.47 -33.96 30.82 -33.55 30.15 C-31.37 26.68 -29.93 24.56 -26 23 C-24.96 21.36 -23.95 19.69 -23 18 C-22.01 17.5 -22.01 17.5 -21 17 C-20.01 15.09 -20.01 15.09 -19.12 12.81 C-14.91 3.09 -14.91 3.09 -9.62 0.06 C-5.85 -1.04 -3.76 -1.01 0 0 Z M-21 20 C-20 22 -20 22 -20 22 Z M-41 42 C-40 44 -40 44 -40 44 Z " fill="#000002" transform="translate(639,732)"/>
<path d="M0 0 C9.18 -0.3 18.7 -0.23 26 6 C29.01 8.93 29.91 10.36 30.5 14.56 C30 18 30 18 28.44 20.31 C20.6 25.74 9.54 24.91 0.54 23.43 C-4.54 22.24 -8.59 20.84 -13 18 C-12.67 17.34 -12.34 16.68 -12 16 C-11.45 16.28 -10.91 16.55 -10.35 16.84 C-1.97 20.87 5.42 21.15 14.62 20.94 C17 21 17 21 20 22 C20 21.34 20 20.68 20 20 C20.64 19.79 21.28 19.59 21.94 19.38 C24.3 18.12 24.3 18.12 24.88 15.12 C25.06 11.17 25.06 11.17 23 8 C11.85 2.21 0.61 3.12 -11.05 6.73 C-17.83 9.65 -21.31 14.31 -24 21 C-25.05 25.91 -24.12 30.12 -21.38 34.36 C-16.14 40.58 -7.93 44.69 -1.09 48.94 C4.77 52.66 9.36 56.68 13.25 62.5 C13.75 63.23 14.25 63.96 14.77 64.72 C18.21 71.09 17.99 79.83 16.35 86.72 C12.11 98.46 3.4 104.61 -7.33 110.22 C-20.31 116.06 -34.11 116.55 -48 115 C-48 114.67 -48 114.34 -48 114 C-46.77 113.95 -45.54 113.9 -44.27 113.85 C-42.64 113.78 -41.01 113.7 -39.38 113.62 C-38.57 113.59 -37.76 113.56 -36.93 113.53 C-32.28 113.3 -28.37 112.74 -24 111 C-26.97 111 -29.94 111 -33 111 C-29.23 109.12 -27.97 108.78 -24 109 C-24 108.34 -24 107.68 -24 107 C-22.64 106.6 -22.64 106.6 -21.25 106.19 C-18.2 105.07 -16.45 104.06 -14 102 C-13.15 101.36 -12.31 100.72 -11.44 100.06 C-5.36 94.92 -2.41 88.11 -1.62 80.25 C-1.82 72.99 -5.14 66.27 -10 61 C-12.49 59.04 -15.11 57.3 -17.75 55.56 C-19.19 54.59 -20.63 53.62 -22.07 52.65 C-23.09 51.96 -23.09 51.96 -24.14 51.26 C-38.87 41.31 -38.87 41.31 -41 33 C-41.77 28.71 -41.8 25.44 -39.64 21.56 C-34.75 15 -29.23 11.61 -22 8 C-20.68 7.15 -19.37 6.3 -18.06 5.44 C-12.21 1.74 -6.91 0.72 0 1 C0 0.67 0 0.34 0 0 Z M-32 15 C-36.35 19.89 -38.45 23.23 -38.25 29.92 C-37.44 36.66 -33.48 42.18 -28.3 46.38 C-24.98 48.79 -21.53 50.92 -18 53 C-16.95 53.72 -15.9 54.44 -14.81 55.19 C-12.28 57.18 -12.28 57.18 -10 57 C-9.67 57.99 -9.34 58.98 -9 60 C-8.24 60.76 -7.47 61.53 -6.69 62.31 C-1.05 67.95 0.93 72.54 1.25 80.31 C1.08 88.79 -2.22 93.89 -7.93 100.02 C-10.45 102.43 -13.05 104.16 -16 106 C-16 106.66 -16 107.32 -16 108 C-17.98 108.99 -17.98 108.99 -20 110 C-10.31 108.38 -0.6 102.6 5.64 95.01 C10.23 87.82 11.06 78.84 9.31 70.56 C5.79 61 -0.75 56.29 -9.19 51.19 C-29.81 38.68 -29.81 38.68 -32 30 C-32.65 24.63 -31.51 21.69 -29 17 C-29.33 16.34 -29.66 15.68 -30 15 C-30.66 15 -31.32 15 -32 15 Z " fill="#000002" transform="translate(744,697)"/>
<path d="M0 0 C3.56 0.62 3.56 0.62 6.44 2.5 C9.38 6.83 9.8 10.43 9.56 15.62 C9 17.69 8.44 19.75 7.88 21.81 C7.25 25.17 6.97 27.49 8.58 30.57 C11.4 34.67 14.7 38.3 18.08 41.94 C23.46 48.04 26.08 54.34 25.88 62.51 C25.39 65.81 23.98 67.4 21.56 69.62 C15.5 74.08 8.78 73.33 1.56 72.62 C-1.73 71.66 -3.58 70.62 -6.44 68.62 C-6.77 67.63 -7.1 66.64 -7.44 65.62 C-6.9 65.84 -6.37 66.06 -5.82 66.28 C1.12 68.87 7.49 69.85 14.69 67.69 C16.93 65.59 16.93 65.59 17.25 61.69 C16.75 52.59 10.81 44.72 5.56 37.62 C5.56 36.97 5.56 36.3 5.56 35.62 C4.9 35.62 4.24 35.62 3.56 35.62 C3.4 36.16 3.23 36.69 3.06 37.24 C1.13 43.24 -1.24 48.94 -3.81 54.69 C-7.83 63.81 -11.7 72.98 -15.46 82.21 C-16.02 83.59 -16.58 84.97 -17.15 86.36 C-28.27 113.24 -28.27 113.24 -26.44 141.62 C-25.78 141.62 -25.12 141.62 -24.44 141.62 C-24.44 142.28 -24.44 142.94 -24.44 143.62 C-18.4 142.78 -12.41 141.85 -6.44 140.62 C-9.31 143.95 -12.16 145.38 -16.55 145.85 C-24.36 146.14 -28.99 143.23 -34.82 138.32 C-38.5 134.46 -39.86 131.26 -39.81 125.94 C-39.36 110.93 -31.17 96.85 -24.49 83.7 C-22.05 78.88 -19.72 74.02 -17.44 69.12 C-14.78 63.44 -12.06 57.8 -9.25 52.19 C-8.92 51.52 -8.59 50.86 -8.25 50.17 C-6.8 47.29 -5.34 44.44 -3.79 41.61 C-1.18 36.84 -1.18 36.84 -0.31 31.56 C-1.65 28.08 -3.36 24.96 -5.28 21.77 C-7.99 16.75 -8.07 11.22 -7.44 5.62 C-5.42 1.58 -4.45 0.81 0 0 Z M-0.44 3.62 C-2.55 9.25 -2.69 13.01 -0.44 18.62 C1.86 22.85 1.86 22.85 5.56 25.62 C7.22 18.29 7.59 10.64 4.56 3.62 C2.91 3.62 1.26 3.62 -0.44 3.62 Z M6.56 14.62 C7.56 16.62 7.56 16.62 7.56 16.62 Z " fill="#000002" transform="translate(883.4375,724.375)"/>
<path d="M0 0 C2.94 2.25 2.94 2.25 5 5 C5.6 5.6 6.2 6.2 6.81 6.81 C8.65 10.2 8.19 13.18 8 17 C5.54 18.55 4.32 19.03 1.38 18.75 C-1 18 -1 18 -3 16 C-3.4 13.68 -3.74 11.34 -4 9 C-9.64 9.42 -13.72 11.41 -18 15 C-22.98 20.88 -26.41 27.58 -27.44 35.25 C-27.16 38.05 -27.16 38.05 -25.62 40.38 C-21.55 42.9 -17.65 42.88 -13 42 C-9.94 39.67 -8.23 37.34 -6.06 34.19 C-4 32 -4 32 -0.88 31.56 C2 32 2 32 4 34 C4.7 37.28 4.5 39.22 2.68 42.07 C-2.41 48.27 -7.34 50.8 -15.31 51.81 C-21.42 52.19 -27.98 52.5 -32.92 48.41 C-37.02 43.8 -38.37 40.03 -38.28 33.73 C-37.17 22.85 -32.9 14.68 -25.12 7.25 C-17.43 1.71 -9.6 -1.4 0 0 Z " fill="#000002" transform="translate(436,905)"/>
<path d="M0 0 C2.44 0.81 2.44 0.81 4.44 3.81 C4.18 11.8 1.76 19.22 -0.56 26.81 C-0.23 27.14 0.1 27.47 0.44 27.81 C1.01 27.45 1.57 27.09 2.16 26.72 C7.04 23.79 10.57 21.87 16.44 22.81 C18.38 23.81 18.38 23.81 19.44 25.81 C19.74 31.59 19.04 36.45 17.5 42 C14.84 50.83 14.84 50.83 15.44 59.81 C14.78 59.81 14.12 59.81 13.44 59.81 C13.44 60.47 13.44 61.13 13.44 61.81 C12.16 61.87 10.88 61.94 9.56 62 C8.48 62.05 8.48 62.05 7.38 62.11 C6.74 62.01 6.1 61.91 5.44 61.81 C2 56.66 4.29 50.66 5.44 44.81 C6.19 42.1 7.01 39.45 7.95 36.8 C8.67 34.62 8.67 34.62 7.44 31.81 C-1.93 38.24 -4.41 48.5 -7.56 58.81 C-9.04 58.84 -10.52 58.86 -12 58.88 C-12.82 58.89 -13.65 58.9 -14.5 58.91 C-16.56 58.81 -16.56 58.81 -17.56 57.81 C-17.17 48.19 -14.53 39.09 -12.12 29.81 C-11.31 26.65 -10.5 23.48 -9.69 20.31 C-9.4 19.19 -9.4 19.19 -9.1 18.04 C-7.88 13.24 -6.86 8.46 -6.13 3.56 C-5.09 0.36 -3.14 -0.23 0 0 Z M-5.56 6.81 C-4.56 8.81 -4.56 8.81 -4.56 8.81 Z " fill="#000002" transform="translate(461.5625,896.1875)"/>
<path d="M0 0 C-1.57 11.46 -7.62 23.43 -14 33 C-10.9 33 -8.6 32.45 -5.62 31.62 C-4.69 31.37 -3.75 31.11 -2.79 30.85 C0.01 30.04 0.01 30.04 2.68 28.91 C5.27 27.9 7.24 27.84 10 28 C7.84 30.43 6.1 31.54 3.02 32.54 C2.24 32.79 1.47 33.04 0.68 33.3 C-0.12 33.55 -0.92 33.8 -1.75 34.06 C-2.54 34.32 -3.32 34.57 -4.13 34.84 C-4.91 35.09 -5.68 35.34 -6.48 35.6 C-7.63 35.97 -7.63 35.97 -8.8 36.36 C-11 37 -11 37 -14.75 37.56 C-19.88 39.83 -21.1 43.96 -23.25 48.94 C-23.67 49.84 -24.09 50.74 -24.52 51.67 C-28.28 59.95 -31.8 68.78 -31 78 C-29.92 79.29 -29.92 79.29 -27.38 79.25 C-21.19 78.79 -17.16 76.46 -13 72 C-12.34 72 -11.68 72 -11 72 C-12.47 75.62 -14.4 77.37 -17.5 79.69 C-18.29 80.29 -19.09 80.89 -19.91 81.51 C-23.74 84.23 -26.28 84.4 -31 84 C-33.88 82.5 -33.88 82.5 -36 80 C-37.86 73.6 -36.37 68.47 -34.59 62.15 C-33.94 58.7 -34.07 56.37 -35 53 C-38.04 50.47 -41.1 48.93 -44.75 47.5 C-48 46 -48 46 -49.44 43.81 C-49.62 43.21 -49.81 42.62 -50 42 C-48.92 40.54 -48.92 40.54 -47 39 C-43.93 38.56 -43.93 38.56 -40.31 38.44 C-32.45 38.25 -32.45 38.25 -25 36 C-23.22 33.35 -22.18 31.39 -21.08 28.47 C-20.77 27.73 -20.45 26.98 -20.13 26.22 C-19.14 23.84 -18.19 21.45 -17.25 19.06 C-16.28 16.68 -15.31 14.3 -14.32 11.92 C-13.71 10.44 -13.12 8.96 -12.53 7.47 C-9.72 0.56 -7.45 -1.86 0 0 Z M-36.88 42 C-38.05 42.28 -38.05 42.28 -39.24 42.56 C-39.82 42.71 -40.4 42.85 -41 43 C-41 43.66 -41 44.32 -41 45 C-39.34 46.02 -37.68 47.02 -36 48 C-35.67 48.66 -35.34 49.32 -35 50 C-34.01 50 -33.02 50 -32 50 C-31.67 50.99 -31.34 51.98 -31 53 C-29.35 49.04 -27.7 45.08 -26 41 C-30.23 41 -32.97 41.05 -36.88 42 Z " fill="#000002" transform="translate(490,717)"/>
<path d="M0 0 C0.66 0.99 1.32 1.98 2 3 C1.67 4.65 1.34 6.3 1 8 C-6.26 8.99 -13.52 9.98 -21 11 C-21.99 15.95 -22.98 20.9 -24 26 C-22.88 25.82 -21.76 25.64 -20.61 25.46 C-19.13 25.24 -17.66 25.03 -16.19 24.81 C-15.45 24.69 -14.71 24.57 -13.95 24.45 C-8.5 23.68 -8.5 23.68 -6 25.28 C-4.65 27.6 -4.79 29.37 -5 32 C-9.38 34.06 -13.56 34.61 -18.31 35.12 C-19.05 35.21 -19.79 35.3 -20.56 35.39 C-22.37 35.6 -24.19 35.8 -26 36 C-27.88 40.47 -29.11 44.98 -30.32 49.67 C-31 52 -31 52 -32 53 C-35.44 53.19 -35.44 53.19 -39 53 C-39.66 52.34 -40.32 51.68 -41 51 C-40.57 44.64 -38.7 38.47 -37.12 32.31 C-36.87 31.3 -36.61 30.29 -36.35 29.24 C-35.83 27.2 -35.31 25.16 -34.79 23.11 C-33.73 18.93 -32.7 14.74 -31.67 10.55 C-30.82 7.33 -29.97 4.71 -28 2 C-22.71 0.69 -17.18 0.68 -11.75 0.44 C-10.84 0.39 -9.93 0.35 -8.99 0.31 C-2.43 0 -2.43 0 0 0 Z " fill="#000002" transform="translate(657,903)"/>
<path d="M0 0 C2.09 3.14 2.27 4.03 2.38 7.63 C2.43 8.97 2.43 8.97 2.48 10.32 C2.51 11.25 2.54 12.17 2.56 13.12 C2.62 14.96 2.69 16.8 2.75 18.63 C2.78 19.45 2.8 20.26 2.83 21.1 C2.8 23.01 2.8 23.01 4 24 C4.53 23.26 5.07 22.52 5.62 21.76 C9.62 16.31 13.72 10.96 18.12 5.81 C18.89 4.91 19.66 4.01 20.45 3.08 C23.62 0.5 25.97 0.25 30 0 C30 0.66 30 1.32 30 2 C30.66 2 31.32 2 32 2 C30.79 9.53 23.27 15.71 18.17 21.03 C17.5 21.73 16.84 22.43 16.15 23.15 C14.82 24.52 13.49 25.89 12.14 27.25 C6.97 32.61 4.28 37.38 2.94 44.81 C2.22 48.78 2.22 48.78 0 51 C-3 51.25 -3 51.25 -6 51 C-6.66 50.34 -7.32 49.68 -8 49 C-7.93 46.51 -7.75 44.1 -7.5 41.62 C-6.87 33.95 -7.3 26.67 -8.24 19.04 C-9.56 8.11 -9.56 8.11 -9 3 C-6.45 -0.12 -3.94 -0.62 0 0 Z M-8 10 C-7 12 -7 12 -7 12 Z " fill="#000002" transform="translate(759,905)"/>
<path d="M0 0 C3.12 1.88 3.12 1.88 5 5 C5.39 8.38 5.3 11.62 5 15 C-0.31 18.28 -5.5 20.38 -11.44 22.25 C-12.26 22.52 -13.09 22.79 -13.94 23.06 C-15.96 23.72 -17.98 24.36 -20 25 C-20 26.32 -20 27.64 -20 29 C-16.86 30.57 -14.46 30.35 -11 30 C-8.21 27.71 -8.21 27.71 -6 25 C-3 23 -3 23 -0.88 23.31 C1 24 1 24 2 25 C2.44 27.75 2.44 27.75 2 31 C-2.46 36.16 -7.32 37.46 -14 38 C-19.32 38.06 -23.54 37.9 -28.12 35.06 C-31.39 31.47 -31.46 28.58 -31.4 23.86 C-30.27 15.84 -25.22 9.28 -19 4.37 C-13.02 0.27 -7.15 -1.23 0 0 Z M-11.62 9.75 C-12.42 10.26 -13.22 10.77 -14.04 11.3 C-16.21 13.19 -16.65 14.19 -17 17 C-12.03 15.51 -7.58 13.4 -3 11 C-3.33 9.68 -3.66 8.36 -4 7 C-7.55 7 -8.7 7.83 -11.62 9.75 Z " fill="#000002" transform="translate(303,919)"/>
<path d="M0 0 C3.12 1.94 3.12 1.94 5 5 C5.67 8.14 5.94 10.91 5 14 C0.32 19.07 -6.57 20.38 -12.96 22.36 C-13.83 22.64 -14.71 22.93 -15.61 23.22 C-16.4 23.47 -17.2 23.71 -18.02 23.97 C-20.47 25.25 -21.02 26.46 -22 29 C-15.46 30.17 -15.46 30.17 -9.12 28.81 C-6.93 27.01 -6.93 27.01 -4.94 24.75 C-3.98 23.88 -3.98 23.88 -3 23 C-0.78 23.19 0.42 23.42 2 25 C2.44 27.75 2.44 27.75 2 31 C-2.46 36.16 -7.32 37.46 -14 38 C-19.32 38.06 -23.54 37.9 -28.12 35.06 C-31.42 31.44 -31.4 28.55 -31.35 23.8 C-30.46 16.63 -26.44 10.6 -21 6 C-20.38 5.46 -19.76 4.93 -19.12 4.38 C-13 0.41 -7.29 -1.27 0 0 Z M-11.62 9.75 C-12.42 10.26 -13.22 10.77 -14.04 11.3 C-16.21 13.19 -16.65 14.19 -17 17 C-12.03 15.51 -7.58 13.4 -3 11 C-3.33 9.68 -3.66 8.36 -4 7 C-7.55 7 -8.7 7.83 -11.62 9.75 Z " fill="#000002" transform="translate(589,919)"/>
<path d="M0 0 C1.17 1.66 1.17 1.66 2 4 C0.99 6.56 0.99 6.56 -0.69 9.44 C-4.1 15.78 -5.7 21.95 -7 29 C-3.25 30.1 -0.75 30.24 2.73 28.55 C5.72 26.64 6.04 25.91 7.45 22.39 C7.75 21.02 8.01 19.64 8.25 18.25 C8.55 16.81 8.86 15.38 9.16 13.95 C9.3 13.26 9.44 12.58 9.59 11.88 C10.55 7.48 11.78 3.22 15 0 C17.56 -0.19 17.56 -0.19 20 0 C21 1 21 1 21.28 4.16 C21.19 10.76 19.22 17.09 17.56 23.44 C17.23 24.74 16.9 26.05 16.58 27.35 C14.15 36.85 14.15 36.85 13 38 C9.56 38.25 9.56 38.25 6 38 C5.34 37.01 4.68 36.02 4 35 C2.58 35.77 2.58 35.77 1.12 36.56 C-3.63 38.6 -8.05 38.24 -13 37 C-15.62 35.44 -15.62 35.44 -17 33 C-18.55 22.36 -13.13 10.14 -8 1 C-5.29 -0.35 -2.99 -0.07 0 0 Z " fill="#000002" transform="translate(844,919)"/>
<path d="M0 0 C3.45 2.54 5.4 5.07 7 9 C8.08 17.27 7.62 24.02 2.77 30.94 C-0.9 35.21 -4.36 37.96 -10 38.94 C-15.48 39.29 -19.58 38.2 -23.81 34.62 C-27.42 30.3 -28.51 27.08 -28.38 21.51 C-27.13 13.29 -22.1 7.37 -15.88 2.25 C-11.16 -0.89 -5.45 -0.72 0 0 Z M-14 12 C-17.61 17.29 -18.57 21.57 -18 28 C-16.06 30.8 -14.83 31.76 -11.56 32.69 C-8.02 31.74 -6.99 29.8 -5.02 26.82 C-2.88 22.99 -2.87 19.74 -2.88 15.44 C-2.87 14.28 -2.87 13.12 -2.87 11.93 C-2.8 9.07 -2.8 9.07 -4 7 C-9.1 6.27 -10.79 8.2 -14 12 Z M-2 12 C-1 16 -1 16 -1 16 Z " fill="#000002" transform="translate(686,918)"/>
<path d="M0 0 C3.32 2.41 5.19 5.37 7 9 C7.8 19.15 6.33 25.86 0 34 C-4.67 38.02 -8.97 39.1 -15 39 C-19.58 38.03 -22.64 36.27 -26 33 C-28.91 28.15 -28.72 22.29 -27.54 16.89 C-25.29 10.04 -20.63 3.98 -14.12 0.67 C-9.43 -0.81 -4.81 -1.02 0 0 Z M-14 11 C-17.04 15.68 -18.89 20.36 -19 26 C-18.19 28.96 -18.19 28.96 -16 31 C-12.6 32.33 -12.6 32.33 -9 32 C-3.72 27.14 -2.62 21.25 -2.02 14.38 C-2 11.53 -2.59 9.48 -4 7 C-8.72 6.46 -10.71 7.63 -14 11 Z " fill="#000002" transform="translate(817,918)"/>
<path d="M0 0 C3.06 2.38 3.06 2.38 5 5 C5.66 5.66 6.32 6.32 7 7 C8.54 14.38 8.7 21.58 4.7 28.13 C-1.76 37.17 -1.76 37.17 -7.07 38.53 C-12.13 39.29 -16.21 39.02 -21 37 C-24.88 33.71 -26.77 31.51 -27.24 26.36 C-27.4 19.67 -27.19 14.42 -23 9 C-16.06 1.82 -10.2 -1.53 0 0 Z M-12 9 C-15.1 13.69 -18.28 19.29 -18.69 25 C-18.21 28.15 -18.21 28.15 -15.81 30.5 C-13.15 32.19 -13.15 32.19 -10.44 32.06 C-6.49 30.34 -4.71 27.5 -2.9 23.68 C-1.92 20.76 -1.73 18.45 -1.75 15.38 C-1.74 14.43 -1.74 13.49 -1.73 12.52 C-1.83 9.75 -1.83 9.75 -4 7 C-8.41 6.96 -8.41 6.96 -12 9 Z " fill="#000002" transform="translate(513,918)"/>
<path d="M0 0 C3.73 1.44 3.73 1.44 4.81 3.69 C5.07 6.89 4.55 9.84 4 13 C5.85 13 7.71 12.97 9.56 12.88 C12 13 12 13 14 15 C14.19 17.56 14.19 17.56 14 20 C12.19 21.81 9.39 21.38 6.94 21.56 C5.28 21.69 5.28 21.69 3.59 21.82 C2.74 21.88 1.88 21.94 1 22 C0.33 24.56 -0.34 27.12 -1 29.69 C-1.19 30.41 -1.38 31.13 -1.58 31.87 C-2.55 35.67 -3.25 39.05 -3 43 C-0.71 43.5 -0.71 43.5 2 43 C3.71 41.04 5.38 39.04 7 37 C9.19 36 9.19 36 11 36 C13 38 13 38 13.5 40.75 C12.89 44.75 11.54 46.08 8.7 48.8 C4.03 52.09 -2.55 51.58 -8 51 C-11.2 49.27 -12.55 48.3 -13.74 44.87 C-14.1 40.95 -13.11 37.55 -12.06 33.81 C-10.59 28.97 -10.59 28.97 -10 24 C-12.48 23.01 -12.48 23.01 -15 22 C-14.67 20.35 -14.34 18.7 -14 17 C-11.69 16.34 -9.38 15.68 -7 15 C-6.91 14.34 -6.83 13.67 -6.74 12.99 C-5.78 6.98 -4.82 3.8 0 0 Z " fill="#000002" transform="translate(362,906)"/>
<path d="M0 0 C2.46 1.86 2.46 1.86 4 4 C3.7 8.3 3.7 8.3 2 10 C-1.44 10.19 -1.44 10.19 -5 10 C-5.66 9.34 -6.32 8.68 -7 8 C-11.66 8.41 -11.66 8.41 -16 10 C-16 10.99 -16 11.98 -16 13 C-15.32 13.29 -14.65 13.58 -13.95 13.88 C-4.49 18.23 -4.49 18.23 -2 24 C-1.38 27.04 -1.54 28.8 -2 32 C-4.7 35.52 -6.68 37.25 -11 38 C-19.17 38.55 -25.2 38.56 -31.94 33.56 C-33 32 -33 32 -33 29.94 C-32 28 -32 28 -29.81 26.5 C-25.78 25.78 -24.34 27.77 -21 30 C-18.23 30.35 -15.8 30.19 -13 30 C-12.87 27.12 -12.87 27.12 -14 24 C-15.9 22.74 -17.84 21.9 -19.92 20.99 C-23.03 19.51 -24.93 17.72 -27 15 C-27.57 11.61 -27.21 9.6 -26.06 6.38 C-19.66 -1 -9.12 -1.44 0 0 Z " fill="#000002" transform="translate(342,919)"/>
<path d="M0 0 C1.94 1.33 1.94 1.33 3 3 C3.25 6.12 3.25 6.12 3 9 C2 10 2 10 -1.56 10.06 C-2.7 10.04 -3.83 10.02 -5 10 C-5.33 9.01 -5.66 8.02 -6 7 C-11.13 8.12 -11.13 8.12 -16 10 C-16.33 10.99 -16.66 11.98 -17 13 C-16.32 13.25 -15.64 13.5 -14.94 13.75 C-4.14 18.35 -4.14 18.35 -2 23 C-1.48 26.11 -1.4 28.9 -2 32 C-4.68 35.57 -6.66 37.23 -11 38 C-19.09 38.59 -25.28 38.39 -32 33.56 C-33 32 -33 32 -33 29.94 C-32 28 -32 28 -29.81 26.5 C-25.78 25.78 -24.34 27.77 -21 30 C-18.23 30.35 -15.8 30.19 -13 30 C-12.87 27.12 -12.87 27.12 -14 24 C-15.9 22.78 -17.85 21.96 -19.92 21.05 C-23.41 19.28 -24.93 17.33 -27 14 C-27.08 10.3 -26.28 8.46 -24.38 5.31 C-17.69 -1.2 -8.86 -1.06 0 0 Z " fill="#000002" transform="translate(554,919)"/>
<path d="M0 0 C2.95 1.11 4.45 2.58 6.5 4.94 C7.53 4.28 8.56 3.62 9.62 2.94 C13.06 0.99 15.5 0.3 19.5 0.94 C21.38 2.12 21.38 2.12 22.5 3.94 C22.94 6.38 22.94 6.38 22.5 8.94 C20.81 11.25 20.81 11.25 18.5 12.94 C15.75 13.19 15.75 13.19 13.5 12.94 C13.5 12.28 13.5 11.62 13.5 10.94 C9.59 11.52 7.34 13.24 4.5 15.94 C1.82 20.57 0.51 25.16 -0.69 30.31 C-0.86 31.05 -1.04 31.78 -1.22 32.54 C-1.66 34.34 -2.08 36.14 -2.5 37.94 C-3.78 38 -5.06 38.06 -6.38 38.12 C-7.45 38.18 -7.45 38.18 -8.55 38.23 C-9.2 38.13 -9.84 38.04 -10.5 37.94 C-12.5 34.94 -12.5 34.94 -12.07 32.2 C-11.76 31.11 -11.45 30.03 -11.13 28.91 C-10.8 27.73 -10.48 26.54 -10.14 25.32 C-9.78 24.08 -9.43 22.84 -9.06 21.56 C-8.37 19.12 -7.68 16.67 -7 14.23 C-6.69 13.14 -6.38 12.05 -6.06 10.94 C-5.49 7.87 -5.66 5.91 -6.5 2.94 C-4.23 0.84 -3.15 -0.08 0 0 Z " fill="#000002" transform="translate(707.5,918.0625)"/>
<path d="M0 0 C2.25 0.88 2.25 0.88 3.25 1.88 C2.62 8.71 0.85 15.39 -0.69 22.06 C-0.95 23.24 -1.22 24.41 -1.49 25.62 C-1.75 26.75 -2.01 27.88 -2.28 29.04 C-2.51 30.07 -2.75 31.09 -2.99 32.15 C-3.68 34.61 -4.51 36.65 -5.75 38.88 C-8.06 38.88 -10.37 38.88 -12.75 38.88 C-14.55 36.22 -14.76 34.99 -14.41 31.75 C-14.14 30.54 -13.87 29.34 -13.59 28.1 C-13.44 27.45 -13.3 26.8 -13.15 26.13 C-12.83 24.76 -12.51 23.4 -12.18 22.03 C-11.69 19.95 -11.23 17.87 -10.78 15.78 C-10.47 14.45 -10.15 13.12 -9.84 11.79 C-9.56 10.58 -9.28 9.37 -8.99 8.13 C-7.32 3.74 -5.07 -0.23 0 0 Z " fill="#000002" transform="translate(905.75,904.125)"/>
<path d="M0 0 C5.28 0.33 10.56 0.66 16 1 C16 1.33 16 1.66 16 2 C14.98 2.07 13.97 2.15 12.92 2.23 C2.72 3.14 -7.68 4.87 -15 12.81 C-20.23 21.15 -22.38 28.01 -21 38 C-18.87 44.85 -15.15 50.24 -9 54 C-5.73 55.53 -2.42 56.83 1 58 C1 58.33 1 58.66 1 59 C-7.62 58.84 -13.95 54.76 -20.19 48.97 C-25.44 43.28 -27.44 38.18 -27.26 30.44 C-26.3 21.4 -22.86 13.99 -16 8 C-6.55 1.67 -6.55 1.67 -2 1 C-1.34 1.33 -0.68 1.66 0 2 C0 1.34 0 0.68 0 0 Z " fill="#000002" transform="translate(695,752)"/>
<path d="M0 0 C0 0.66 0 1.32 0 2 C0.66 2 1.32 2 2 2 C2.12 4.88 2.12 4.88 2 8 C0 10 0 10 -3.44 10.25 C-7 10 -7 10 -10 8 C-9.69 5.12 -9.69 5.12 -9 2 C-5.56 -0.29 -4.01 -0.18 0 0 Z " fill="#000002" transform="translate(898,946)"/>
<path d="M0 0 C0.33 0 0.66 0 1 0 C1 4.95 1 9.9 1 15 C0.67 15 0.34 15 0 15 C0 10.05 0 5.1 0 0 Z " fill="#000002" transform="translate(33,746)"/>
<path d="M0 0 C3.3 0 6.6 0 10 0 C10 0.33 10 0.66 10 1 C6.7 1 3.4 1 0 1 C0 0.67 0 0.34 0 0 Z " fill="#000002" transform="translate(762,93)"/>
<path d="" fill="#000002" transform="translate(0,0)"/>
<path d="" fill="#000002" transform="translate(0,0)"/>
<path d="M0 0 C2 1 2 1 2 1 Z " fill="#000002" transform="translate(345,757)"/>
<path d="M0 0 C2 1 2 1 2 1 Z " fill="#000002" transform="translate(703,751)"/>
<path d="" fill="#000002" transform="translate(0,0)"/>
<path d="" fill="#000002" transform="translate(0,0)"/>
<path d="" fill="#000002" transform="translate(0,0)"/>
<path d="" fill="#000002" transform="translate(0,0)"/>
<path d="" fill="#000002" transform="translate(0,0)"/>
<path d="" fill="#000002" transform="translate(0,0)"/>
<path d="" fill="#000002" transform="translate(0,0)"/>
<path d="" fill="#000002" transform="translate(0,0)"/>
<path d="" fill="#000002" transform="translate(0,0)"/>
<path d="" fill="#000002" transform="translate(0,0)"/>
<path d="" fill="#000002" transform="translate(0,0)"/>
<path d="" fill="#000002" transform="translate(0,0)"/>
<path d="" fill="#000002" transform="translate(0,0)"/>
<path d="" fill="#000002" transform="translate(0,0)"/>
<path d="" fill="#000002" transform="translate(0,0)"/>
<path d="" fill="#000002" transform="translate(0,0)"/>
<path d="" fill="#000002" transform="translate(0,0)"/>
<path d="" fill="#000002" transform="translate(0,0)"/>
<path d="" fill="#000002" transform="translate(0,0)"/>
<path d="" fill="#000002" transform="translate(0,0)"/>
<path d="" fill="#000002" transform="translate(0,0)"/>
<path d="" fill="#000002" transform="translate(0,0)"/>
<path d="" fill="#000002" transform="translate(0,0)"/>
<path d="" fill="#000002" transform="translate(0,0)"/>
<path d="" fill="#000002" transform="translate(0,0)"/>
<path d="" fill="#000002" transform="translate(0,0)"/>
<path d="" fill="#000002" transform="translate(0,0)"/>
<path d="" fill="#000002" transform="translate(0,0)"/>
<path d="" fill="#000002" transform="translate(0,0)"/>
<path d="" fill="#000002" transform="translate(0,0)"/>
</svg>
